<mxfile host="app.diagrams.net" agent="Mozilla/5.0 (Windows NT 10.0; Win64; x64) AppleWebKit/537.36 (KHTML, like Gecko) Chrome/129.0.0.0 Safari/537.36" version="24.7.17" pages="14">
  <diagram name="Usercase_Login" id="EgKXXaZeWjrDZoNkNCBZ">
    <mxGraphModel dx="1050" dy="530" grid="1" gridSize="10" guides="1" tooltips="1" connect="1" arrows="1" fold="1" page="1" pageScale="1" pageWidth="827" pageHeight="1169" math="0" shadow="0">
      <root>
        <mxCell id="0" />
        <mxCell id="1" parent="0" />
        <mxCell id="V2dqgKQ3NAm-heYrp2f1-1" value="Admin" style="shape=umlActor;verticalLabelPosition=bottom;verticalAlign=top;html=1;outlineConnect=0;" vertex="1" parent="1">
          <mxGeometry x="70" y="60" width="30" height="60" as="geometry" />
        </mxCell>
        <mxCell id="V2dqgKQ3NAm-heYrp2f1-2" value="Quản lý rạp" style="shape=umlActor;verticalLabelPosition=bottom;verticalAlign=top;html=1;outlineConnect=0;" vertex="1" parent="1">
          <mxGeometry x="70" y="210" width="30" height="60" as="geometry" />
        </mxCell>
        <mxCell id="V2dqgKQ3NAm-heYrp2f1-3" value="Khách Hàng" style="shape=umlActor;verticalLabelPosition=bottom;verticalAlign=top;html=1;outlineConnect=0;" vertex="1" parent="1">
          <mxGeometry x="70" y="370" width="30" height="60" as="geometry" />
        </mxCell>
        <mxCell id="V2dqgKQ3NAm-heYrp2f1-5" value="" style="endArrow=block;html=1;rounded=0;endFill=0;endSize=15;" edge="1" parent="1">
          <mxGeometry width="50" height="50" relative="1" as="geometry">
            <mxPoint x="120" y="100" as="sourcePoint" />
            <mxPoint x="260" y="250" as="targetPoint" />
          </mxGeometry>
        </mxCell>
        <mxCell id="V2dqgKQ3NAm-heYrp2f1-6" value="" style="endArrow=block;html=1;rounded=0;endFill=0;endSize=15;" edge="1" parent="1">
          <mxGeometry width="50" height="50" relative="1" as="geometry">
            <mxPoint x="130" y="260" as="sourcePoint" />
            <mxPoint x="260" y="260" as="targetPoint" />
          </mxGeometry>
        </mxCell>
        <mxCell id="V2dqgKQ3NAm-heYrp2f1-7" value="" style="endArrow=block;html=1;rounded=0;endFill=0;endSize=15;" edge="1" parent="1">
          <mxGeometry width="50" height="50" relative="1" as="geometry">
            <mxPoint x="120" y="410" as="sourcePoint" />
            <mxPoint x="260" y="270" as="targetPoint" />
          </mxGeometry>
        </mxCell>
        <mxCell id="V2dqgKQ3NAm-heYrp2f1-8" value="User" style="shape=umlActor;verticalLabelPosition=bottom;verticalAlign=top;html=1;outlineConnect=0;" vertex="1" parent="1">
          <mxGeometry x="280" y="230" width="30" height="60" as="geometry" />
        </mxCell>
        <mxCell id="V2dqgKQ3NAm-heYrp2f1-10" value="" style="endArrow=none;html=1;rounded=0;" edge="1" parent="1" target="V2dqgKQ3NAm-heYrp2f1-11">
          <mxGeometry width="50" height="50" relative="1" as="geometry">
            <mxPoint x="330" y="260" as="sourcePoint" />
            <mxPoint x="420" y="260" as="targetPoint" />
          </mxGeometry>
        </mxCell>
        <mxCell id="V2dqgKQ3NAm-heYrp2f1-11" value="Đăng Nhập" style="ellipse;whiteSpace=wrap;html=1;" vertex="1" parent="1">
          <mxGeometry x="400" y="230" width="120" height="60" as="geometry" />
        </mxCell>
        <mxCell id="V2dqgKQ3NAm-heYrp2f1-14" value="" style="endArrow=open;html=1;rounded=0;entryX=0.003;entryY=0.627;entryDx=0;entryDy=0;entryPerimeter=0;exitX=1;exitY=0.5;exitDx=0;exitDy=0;dashed=1;endSize=10;endFill=0;" edge="1" parent="1">
          <mxGeometry width="50" height="50" relative="1" as="geometry">
            <mxPoint x="519.52" y="260" as="sourcePoint" />
            <mxPoint x="600" y="187.62" as="targetPoint" />
          </mxGeometry>
        </mxCell>
        <mxCell id="V2dqgKQ3NAm-heYrp2f1-16" value="Nhập email và password&amp;nbsp;&lt;div&gt;đăng nhập&lt;/div&gt;" style="ellipse;whiteSpace=wrap;html=1;" vertex="1" parent="1">
          <mxGeometry x="600" y="150" width="160" height="60" as="geometry" />
        </mxCell>
        <mxCell id="V2dqgKQ3NAm-heYrp2f1-17" value="" style="endArrow=open;html=1;rounded=0;exitX=1;exitY=0.5;exitDx=0;exitDy=0;entryX=0;entryY=0.5;entryDx=0;entryDy=0;dashed=1;endSize=10;endFill=0;" edge="1" parent="1" target="V2dqgKQ3NAm-heYrp2f1-18" source="V2dqgKQ3NAm-heYrp2f1-11">
          <mxGeometry width="50" height="50" relative="1" as="geometry">
            <mxPoint x="530" y="400" as="sourcePoint" />
            <mxPoint x="570" y="330" as="targetPoint" />
          </mxGeometry>
        </mxCell>
        <mxCell id="V2dqgKQ3NAm-heYrp2f1-18" value="Xác thực thông tin đăng nhập" style="ellipse;whiteSpace=wrap;html=1;" vertex="1" parent="1">
          <mxGeometry x="630" y="250" width="160" height="60" as="geometry" />
        </mxCell>
        <mxCell id="V2dqgKQ3NAm-heYrp2f1-20" value="" style="endArrow=none;html=1;rounded=0;exitX=1.003;exitY=0.68;exitDx=0;exitDy=0;exitPerimeter=0;dashed=1;endFill=0;startArrow=open;startFill=0;endSize=6;startSize=10;" edge="1" parent="1" target="V2dqgKQ3NAm-heYrp2f1-21" source="V2dqgKQ3NAm-heYrp2f1-11">
          <mxGeometry width="50" height="50" relative="1" as="geometry">
            <mxPoint x="590" y="260" as="sourcePoint" />
            <mxPoint x="540" y="440" as="targetPoint" />
          </mxGeometry>
        </mxCell>
        <mxCell id="V2dqgKQ3NAm-heYrp2f1-21" value="Trả về thông tin lỗi" style="ellipse;whiteSpace=wrap;html=1;" vertex="1" parent="1">
          <mxGeometry x="600" y="360" width="160" height="60" as="geometry" />
        </mxCell>
        <mxCell id="V2dqgKQ3NAm-heYrp2f1-22" value="&amp;lt;&amp;lt;include&amp;gt;&amp;gt;" style="text;html=1;align=center;verticalAlign=middle;resizable=0;points=[];autosize=1;strokeColor=none;fillColor=none;" vertex="1" parent="1">
          <mxGeometry x="504.52" y="188" width="90" height="30" as="geometry" />
        </mxCell>
        <mxCell id="V2dqgKQ3NAm-heYrp2f1-25" value="&amp;lt;&amp;lt;include&amp;gt;&amp;gt;" style="text;html=1;align=center;verticalAlign=middle;resizable=0;points=[];autosize=1;strokeColor=none;fillColor=none;" vertex="1" parent="1">
          <mxGeometry x="535" y="248" width="90" height="30" as="geometry" />
        </mxCell>
        <mxCell id="V2dqgKQ3NAm-heYrp2f1-26" value="&amp;lt;&amp;lt;extend&amp;gt;&amp;gt;" style="text;html=1;align=center;verticalAlign=middle;resizable=0;points=[];autosize=1;strokeColor=none;fillColor=none;" vertex="1" parent="1">
          <mxGeometry x="525" y="298" width="90" height="30" as="geometry" />
        </mxCell>
      </root>
    </mxGraphModel>
  </diagram>
  <diagram id="6zJPL5x-MHU2CjCFq15d" name="Usercase_Register">
    <mxGraphModel dx="1050" dy="530" grid="1" gridSize="10" guides="1" tooltips="1" connect="1" arrows="1" fold="1" page="1" pageScale="1" pageWidth="827" pageHeight="1169" math="0" shadow="0">
      <root>
        <mxCell id="0" />
        <mxCell id="1" parent="0" />
        <mxCell id="k37vNUQJbsUd_cggFJ9k-1" value="Khách hàng" style="shape=umlActor;verticalLabelPosition=bottom;verticalAlign=top;html=1;outlineConnect=0;" vertex="1" parent="1">
          <mxGeometry x="159" y="190" width="30" height="60" as="geometry" />
        </mxCell>
        <mxCell id="k37vNUQJbsUd_cggFJ9k-2" value="" style="endArrow=none;html=1;rounded=0;" edge="1" parent="1" target="k37vNUQJbsUd_cggFJ9k-3">
          <mxGeometry width="50" height="50" relative="1" as="geometry">
            <mxPoint x="209" y="220" as="sourcePoint" />
            <mxPoint x="299" y="220" as="targetPoint" />
          </mxGeometry>
        </mxCell>
        <mxCell id="k37vNUQJbsUd_cggFJ9k-3" value="Đăng ký" style="ellipse;whiteSpace=wrap;html=1;" vertex="1" parent="1">
          <mxGeometry x="279" y="190" width="120" height="60" as="geometry" />
        </mxCell>
        <mxCell id="k37vNUQJbsUd_cggFJ9k-4" value="" style="endArrow=open;html=1;rounded=0;entryX=0.003;entryY=0.627;entryDx=0;entryDy=0;entryPerimeter=0;exitX=1;exitY=0.5;exitDx=0;exitDy=0;dashed=1;endFill=0;endSize=10;" edge="1" parent="1">
          <mxGeometry width="50" height="50" relative="1" as="geometry">
            <mxPoint x="398.52" y="220" as="sourcePoint" />
            <mxPoint x="479" y="147.62" as="targetPoint" />
          </mxGeometry>
        </mxCell>
        <mxCell id="k37vNUQJbsUd_cggFJ9k-5" value="Nhập thông tin đăng ký" style="ellipse;whiteSpace=wrap;html=1;" vertex="1" parent="1">
          <mxGeometry x="479" y="110" width="160" height="60" as="geometry" />
        </mxCell>
        <mxCell id="k37vNUQJbsUd_cggFJ9k-6" value="" style="endArrow=open;html=1;rounded=0;exitX=1;exitY=0.5;exitDx=0;exitDy=0;entryX=0;entryY=0.5;entryDx=0;entryDy=0;dashed=1;endFill=0;endSize=10;" edge="1" parent="1" source="k37vNUQJbsUd_cggFJ9k-3" target="k37vNUQJbsUd_cggFJ9k-7">
          <mxGeometry width="50" height="50" relative="1" as="geometry">
            <mxPoint x="409" y="360" as="sourcePoint" />
            <mxPoint x="449" y="290" as="targetPoint" />
          </mxGeometry>
        </mxCell>
        <mxCell id="k37vNUQJbsUd_cggFJ9k-7" value="Xác nhận thông tin đăng ký" style="ellipse;whiteSpace=wrap;html=1;" vertex="1" parent="1">
          <mxGeometry x="540" y="208" width="160" height="60" as="geometry" />
        </mxCell>
        <mxCell id="k37vNUQJbsUd_cggFJ9k-8" value="" style="endArrow=none;html=1;rounded=0;exitX=1.003;exitY=0.68;exitDx=0;exitDy=0;exitPerimeter=0;dashed=1;startArrow=open;startFill=0;endFill=0;startSize=10;" edge="1" parent="1" source="k37vNUQJbsUd_cggFJ9k-3" target="k37vNUQJbsUd_cggFJ9k-9">
          <mxGeometry width="50" height="50" relative="1" as="geometry">
            <mxPoint x="469" y="220" as="sourcePoint" />
            <mxPoint x="419" y="400" as="targetPoint" />
          </mxGeometry>
        </mxCell>
        <mxCell id="k37vNUQJbsUd_cggFJ9k-9" value="Trả về thông tin lỗi" style="ellipse;whiteSpace=wrap;html=1;" vertex="1" parent="1">
          <mxGeometry x="479" y="320" width="160" height="60" as="geometry" />
        </mxCell>
        <mxCell id="k37vNUQJbsUd_cggFJ9k-10" value="&amp;lt;&amp;lt;include&amp;gt;&amp;gt;" style="text;html=1;align=center;verticalAlign=middle;resizable=0;points=[];autosize=1;strokeColor=none;fillColor=none;" vertex="1" parent="1">
          <mxGeometry x="383.52" y="148" width="90" height="30" as="geometry" />
        </mxCell>
        <mxCell id="k37vNUQJbsUd_cggFJ9k-11" value="&amp;lt;&amp;lt;include&amp;gt;&amp;gt;" style="text;html=1;align=center;verticalAlign=middle;resizable=0;points=[];autosize=1;strokeColor=none;fillColor=none;" vertex="1" parent="1">
          <mxGeometry x="414" y="208" width="90" height="30" as="geometry" />
        </mxCell>
        <mxCell id="k37vNUQJbsUd_cggFJ9k-12" value="&amp;lt;&amp;lt;extend&amp;gt;&amp;gt;" style="text;html=1;align=center;verticalAlign=middle;resizable=0;points=[];autosize=1;strokeColor=none;fillColor=none;" vertex="1" parent="1">
          <mxGeometry x="404" y="258" width="90" height="30" as="geometry" />
        </mxCell>
      </root>
    </mxGraphModel>
  </diagram>
  <diagram id="gxQ6_p_1I8KQ8nyIdlzr" name="Usercase_QuanlyPersonality">
    <mxGraphModel dx="1050" dy="530" grid="1" gridSize="10" guides="1" tooltips="1" connect="1" arrows="1" fold="1" page="1" pageScale="1" pageWidth="827" pageHeight="1169" math="0" shadow="0">
      <root>
        <mxCell id="0" />
        <mxCell id="1" parent="0" />
        <mxCell id="7gzUqBEk_OlL6ghl3AZM-1" value="Admin" style="shape=umlActor;verticalLabelPosition=bottom;verticalAlign=top;html=1;outlineConnect=0;" vertex="1" parent="1">
          <mxGeometry x="150" y="80" width="30" height="60" as="geometry" />
        </mxCell>
        <mxCell id="7gzUqBEk_OlL6ghl3AZM-2" value="Quản lý rạp" style="shape=umlActor;verticalLabelPosition=bottom;verticalAlign=top;html=1;outlineConnect=0;" vertex="1" parent="1">
          <mxGeometry x="150" y="230" width="30" height="60" as="geometry" />
        </mxCell>
        <mxCell id="7gzUqBEk_OlL6ghl3AZM-3" value="Khách Hàng" style="shape=umlActor;verticalLabelPosition=bottom;verticalAlign=top;html=1;outlineConnect=0;" vertex="1" parent="1">
          <mxGeometry x="150" y="390" width="30" height="60" as="geometry" />
        </mxCell>
        <mxCell id="7gzUqBEk_OlL6ghl3AZM-4" value="" style="endArrow=block;html=1;rounded=0;endFill=0;endSize=15;" edge="1" parent="1">
          <mxGeometry width="50" height="50" relative="1" as="geometry">
            <mxPoint x="200" y="120" as="sourcePoint" />
            <mxPoint x="340" y="270" as="targetPoint" />
          </mxGeometry>
        </mxCell>
        <mxCell id="7gzUqBEk_OlL6ghl3AZM-5" value="" style="endArrow=block;html=1;rounded=0;endFill=0;endSize=15;" edge="1" parent="1">
          <mxGeometry width="50" height="50" relative="1" as="geometry">
            <mxPoint x="210" y="280" as="sourcePoint" />
            <mxPoint x="340" y="280" as="targetPoint" />
          </mxGeometry>
        </mxCell>
        <mxCell id="7gzUqBEk_OlL6ghl3AZM-6" value="" style="endArrow=block;html=1;rounded=0;endSize=14;endFill=0;" edge="1" parent="1">
          <mxGeometry width="50" height="50" relative="1" as="geometry">
            <mxPoint x="200" y="430" as="sourcePoint" />
            <mxPoint x="340" y="290" as="targetPoint" />
          </mxGeometry>
        </mxCell>
        <mxCell id="7gzUqBEk_OlL6ghl3AZM-7" value="User" style="shape=umlActor;verticalLabelPosition=bottom;verticalAlign=top;html=1;outlineConnect=0;" vertex="1" parent="1">
          <mxGeometry x="360" y="250" width="30" height="60" as="geometry" />
        </mxCell>
        <mxCell id="7gzUqBEk_OlL6ghl3AZM-8" value="" style="endArrow=none;html=1;rounded=0;" edge="1" parent="1" target="7gzUqBEk_OlL6ghl3AZM-9">
          <mxGeometry width="50" height="50" relative="1" as="geometry">
            <mxPoint x="410" y="280" as="sourcePoint" />
            <mxPoint x="500" y="280" as="targetPoint" />
          </mxGeometry>
        </mxCell>
        <mxCell id="7gzUqBEk_OlL6ghl3AZM-9" value="Quản lí tài khoản" style="ellipse;whiteSpace=wrap;html=1;" vertex="1" parent="1">
          <mxGeometry x="480" y="250" width="120" height="60" as="geometry" />
        </mxCell>
        <mxCell id="7gzUqBEk_OlL6ghl3AZM-10" value="" style="endArrow=none;html=1;rounded=0;entryX=0.003;entryY=0.627;entryDx=0;entryDy=0;entryPerimeter=0;exitX=0.91;exitY=0.173;exitDx=0;exitDy=0;dashed=1;endFill=0;startArrow=open;startFill=0;exitPerimeter=0;startSize=10;" edge="1" parent="1" source="7gzUqBEk_OlL6ghl3AZM-9">
          <mxGeometry width="50" height="50" relative="1" as="geometry">
            <mxPoint x="599.52" y="280" as="sourcePoint" />
            <mxPoint x="680" y="207.62" as="targetPoint" />
          </mxGeometry>
        </mxCell>
        <mxCell id="7gzUqBEk_OlL6ghl3AZM-11" value="Xem thông tin tài khoản" style="ellipse;whiteSpace=wrap;html=1;" vertex="1" parent="1">
          <mxGeometry x="680" y="170" width="160" height="60" as="geometry" />
        </mxCell>
        <mxCell id="7gzUqBEk_OlL6ghl3AZM-12" value="" style="endArrow=none;html=1;rounded=0;exitX=1;exitY=0.5;exitDx=0;exitDy=0;entryX=0;entryY=0.5;entryDx=0;entryDy=0;dashed=1;startArrow=open;startFill=0;endFill=0;startSize=10;" edge="1" parent="1" source="7gzUqBEk_OlL6ghl3AZM-9" target="7gzUqBEk_OlL6ghl3AZM-13">
          <mxGeometry width="50" height="50" relative="1" as="geometry">
            <mxPoint x="610" y="420" as="sourcePoint" />
            <mxPoint x="650" y="350" as="targetPoint" />
          </mxGeometry>
        </mxCell>
        <mxCell id="7gzUqBEk_OlL6ghl3AZM-13" value="Cập nhật thông tin tài khoản" style="ellipse;whiteSpace=wrap;html=1;" vertex="1" parent="1">
          <mxGeometry x="710" y="270" width="160" height="60" as="geometry" />
        </mxCell>
        <mxCell id="7gzUqBEk_OlL6ghl3AZM-14" value="" style="endArrow=none;html=1;rounded=0;dashed=1;endFill=0;startArrow=open;startFill=0;endSize=10;" edge="1" parent="1" source="7gzUqBEk_OlL6ghl3AZM-9" target="7gzUqBEk_OlL6ghl3AZM-15">
          <mxGeometry width="50" height="50" relative="1" as="geometry">
            <mxPoint x="670" y="280" as="sourcePoint" />
            <mxPoint x="620" y="460" as="targetPoint" />
          </mxGeometry>
        </mxCell>
        <mxCell id="7gzUqBEk_OlL6ghl3AZM-15" value="Đổi mật khẩu" style="ellipse;whiteSpace=wrap;html=1;" vertex="1" parent="1">
          <mxGeometry x="680" y="380" width="160" height="60" as="geometry" />
        </mxCell>
        <mxCell id="7gzUqBEk_OlL6ghl3AZM-18" value="&amp;lt;&amp;lt;extend&amp;gt;&amp;gt;" style="text;html=1;align=center;verticalAlign=middle;resizable=0;points=[];autosize=1;strokeColor=none;fillColor=none;" vertex="1" parent="1">
          <mxGeometry x="605" y="318" width="90" height="30" as="geometry" />
        </mxCell>
        <mxCell id="6kD0dpb90tjqMrkhV7GG-1" value="&amp;lt;&amp;lt;extend&amp;gt;&amp;gt;" style="text;html=1;align=center;verticalAlign=middle;resizable=0;points=[];autosize=1;strokeColor=none;fillColor=none;" vertex="1" parent="1">
          <mxGeometry x="620" y="270" width="90" height="30" as="geometry" />
        </mxCell>
        <mxCell id="6kD0dpb90tjqMrkhV7GG-2" value="&amp;lt;&amp;lt;extend&amp;gt;&amp;gt;" style="text;html=1;align=center;verticalAlign=middle;resizable=0;points=[];autosize=1;strokeColor=none;fillColor=none;" vertex="1" parent="1">
          <mxGeometry x="590" y="220" width="90" height="30" as="geometry" />
        </mxCell>
        <mxCell id="6kD0dpb90tjqMrkhV7GG-3" value="" style="endArrow=open;html=1;rounded=0;dashed=1;endFill=0;endSize=10;" edge="1" parent="1" target="6kD0dpb90tjqMrkhV7GG-4">
          <mxGeometry width="50" height="50" relative="1" as="geometry">
            <mxPoint x="850" y="280" as="sourcePoint" />
            <mxPoint x="900" y="230" as="targetPoint" />
          </mxGeometry>
        </mxCell>
        <mxCell id="6kD0dpb90tjqMrkhV7GG-4" value="Nhập thông tin&amp;nbsp;&lt;div&gt;cần cập nhập&lt;/div&gt;" style="ellipse;whiteSpace=wrap;html=1;" vertex="1" parent="1">
          <mxGeometry x="940" y="200" width="120" height="60" as="geometry" />
        </mxCell>
        <mxCell id="6kD0dpb90tjqMrkhV7GG-5" value="" style="endArrow=open;html=1;rounded=0;exitX=1;exitY=0.5;exitDx=0;exitDy=0;dashed=1;endFill=0;endSize=10;" edge="1" parent="1" target="6kD0dpb90tjqMrkhV7GG-6" source="7gzUqBEk_OlL6ghl3AZM-13">
          <mxGeometry width="50" height="50" relative="1" as="geometry">
            <mxPoint x="870" y="430" as="sourcePoint" />
            <mxPoint x="920" y="380" as="targetPoint" />
          </mxGeometry>
        </mxCell>
        <mxCell id="6kD0dpb90tjqMrkhV7GG-6" value="Lưu thay đổi" style="ellipse;whiteSpace=wrap;html=1;" vertex="1" parent="1">
          <mxGeometry x="1000" y="282" width="120" height="48" as="geometry" />
        </mxCell>
        <mxCell id="CgetMlsVQZ8Y5Bnk4IrU-2" value="" style="endArrow=none;html=1;rounded=0;dashed=1;endFill=0;startArrow=open;startFill=0;startSize=10;" edge="1" parent="1" target="CgetMlsVQZ8Y5Bnk4IrU-3" source="7gzUqBEk_OlL6ghl3AZM-13">
          <mxGeometry width="50" height="50" relative="1" as="geometry">
            <mxPoint x="870" y="318" as="sourcePoint" />
            <mxPoint x="890" y="487" as="targetPoint" />
          </mxGeometry>
        </mxCell>
        <mxCell id="CgetMlsVQZ8Y5Bnk4IrU-3" value="Trả về thông báo lỗi" style="ellipse;whiteSpace=wrap;html=1;" vertex="1" parent="1">
          <mxGeometry x="970" y="348" width="160" height="60" as="geometry" />
        </mxCell>
        <mxCell id="CgetMlsVQZ8Y5Bnk4IrU-5" value="&amp;lt;&amp;lt;extend&amp;gt;&amp;gt;" style="text;html=1;align=center;verticalAlign=middle;resizable=0;points=[];autosize=1;strokeColor=none;fillColor=none;" vertex="1" parent="1">
          <mxGeometry x="880" y="320" width="90" height="30" as="geometry" />
        </mxCell>
        <mxCell id="UGBecHqiRUYckUiAorhO-3" value="Nhập mật khẩu hiện tại và mật khẩu mới" style="ellipse;whiteSpace=wrap;html=1;" vertex="1" parent="1">
          <mxGeometry x="950" y="430" width="160" height="48" as="geometry" />
        </mxCell>
        <mxCell id="UGBecHqiRUYckUiAorhO-4" value="" style="endArrow=open;html=1;rounded=0;dashed=1;exitX=1;exitY=1;exitDx=0;exitDy=0;endFill=0;endSize=10;" edge="1" parent="1" target="UGBecHqiRUYckUiAorhO-5" source="7gzUqBEk_OlL6ghl3AZM-15">
          <mxGeometry width="50" height="50" relative="1" as="geometry">
            <mxPoint x="850" y="508" as="sourcePoint" />
            <mxPoint x="870" y="685" as="targetPoint" />
          </mxGeometry>
        </mxCell>
        <mxCell id="UGBecHqiRUYckUiAorhO-5" value="Hệ thống kiểm tra và xác nhận thay đổi mật khẩu" style="ellipse;whiteSpace=wrap;html=1;" vertex="1" parent="1">
          <mxGeometry x="890" y="510" width="160" height="60" as="geometry" />
        </mxCell>
        <mxCell id="UGBecHqiRUYckUiAorhO-6" value="&amp;lt;&amp;lt;include&amp;gt;&amp;gt;" style="text;html=1;align=center;verticalAlign=middle;resizable=0;points=[];autosize=1;strokeColor=none;fillColor=none;" vertex="1" parent="1">
          <mxGeometry x="820" y="450" width="90" height="30" as="geometry" />
        </mxCell>
        <mxCell id="UGBecHqiRUYckUiAorhO-7" value="" style="endArrow=open;html=1;rounded=0;entryX=0;entryY=0.5;entryDx=0;entryDy=0;dashed=1;endFill=0;endSize=10;" edge="1" parent="1" target="UGBecHqiRUYckUiAorhO-3">
          <mxGeometry width="50" height="50" relative="1" as="geometry">
            <mxPoint x="840" y="410" as="sourcePoint" />
            <mxPoint x="900" y="390" as="targetPoint" />
          </mxGeometry>
        </mxCell>
        <mxCell id="v-sag4pjhvSeRblJkUrJ-2" value="" style="endArrow=none;html=1;rounded=0;exitX=0.5;exitY=1;exitDx=0;exitDy=0;dashed=1;endFill=0;startArrow=open;startFill=0;endSize=6;startSize=10;" edge="1" parent="1" target="v-sag4pjhvSeRblJkUrJ-3" source="7gzUqBEk_OlL6ghl3AZM-15">
          <mxGeometry width="50" height="50" relative="1" as="geometry">
            <mxPoint x="765" y="533" as="sourcePoint" />
            <mxPoint x="785" y="702" as="targetPoint" />
          </mxGeometry>
        </mxCell>
        <mxCell id="v-sag4pjhvSeRblJkUrJ-3" value="Trả về thông báo lỗi" style="ellipse;whiteSpace=wrap;html=1;" vertex="1" parent="1">
          <mxGeometry x="810" y="600" width="160" height="60" as="geometry" />
        </mxCell>
        <mxCell id="v-sag4pjhvSeRblJkUrJ-5" value="&amp;lt;&amp;lt;extend&amp;gt;&amp;gt;" style="text;html=1;align=center;verticalAlign=middle;resizable=0;points=[];autosize=1;strokeColor=none;fillColor=none;" vertex="1" parent="1">
          <mxGeometry x="745" y="480" width="90" height="30" as="geometry" />
        </mxCell>
        <mxCell id="XMUdtJCQEcrXLpshg_-8-1" value="&amp;lt;&amp;lt;include&amp;gt;&amp;gt;" style="text;html=1;align=center;verticalAlign=middle;resizable=0;points=[];autosize=1;strokeColor=none;fillColor=none;" vertex="1" parent="1">
          <mxGeometry x="855" y="238" width="90" height="30" as="geometry" />
        </mxCell>
        <mxCell id="XMUdtJCQEcrXLpshg_-8-2" value="&amp;lt;&amp;lt;include&amp;gt;&amp;gt;" style="text;html=1;align=center;verticalAlign=middle;resizable=0;points=[];autosize=1;strokeColor=none;fillColor=none;" vertex="1" parent="1">
          <mxGeometry x="875" y="278" width="90" height="30" as="geometry" />
        </mxCell>
        <mxCell id="XMUdtJCQEcrXLpshg_-8-3" value="&amp;lt;&amp;lt;include&amp;gt;&amp;gt;" style="text;html=1;align=center;verticalAlign=middle;resizable=0;points=[];autosize=1;strokeColor=none;fillColor=none;" vertex="1" parent="1">
          <mxGeometry x="835" y="398" width="90" height="30" as="geometry" />
        </mxCell>
      </root>
    </mxGraphModel>
  </diagram>
  <diagram id="VL6P2DD_bFhzksbvmBb9" name="Usercase_AdminMovie">
    <mxGraphModel dx="1050" dy="530" grid="1" gridSize="10" guides="1" tooltips="1" connect="1" arrows="1" fold="1" page="1" pageScale="1" pageWidth="827" pageHeight="1169" math="0" shadow="0">
      <root>
        <mxCell id="0" />
        <mxCell id="1" parent="0" />
        <mxCell id="kB-tPW7IoPf83LC5nT6U-1" value="Admin" style="shape=umlActor;verticalLabelPosition=bottom;verticalAlign=top;html=1;outlineConnect=0;" parent="1" vertex="1">
          <mxGeometry x="130" y="200" width="30" height="60" as="geometry" />
        </mxCell>
        <mxCell id="kB-tPW7IoPf83LC5nT6U-2" value="" style="endArrow=none;html=1;rounded=0;" parent="1" target="kB-tPW7IoPf83LC5nT6U-3" edge="1">
          <mxGeometry width="50" height="50" relative="1" as="geometry">
            <mxPoint x="180" y="230" as="sourcePoint" />
            <mxPoint x="270" y="230" as="targetPoint" />
          </mxGeometry>
        </mxCell>
        <mxCell id="kB-tPW7IoPf83LC5nT6U-3" value="Quản lý phim" style="ellipse;whiteSpace=wrap;html=1;" parent="1" vertex="1">
          <mxGeometry x="250" y="200" width="120" height="60" as="geometry" />
        </mxCell>
        <mxCell id="kB-tPW7IoPf83LC5nT6U-4" value="" style="endArrow=none;html=1;rounded=0;entryX=0.003;entryY=0.627;entryDx=0;entryDy=0;entryPerimeter=0;exitX=0.92;exitY=0.22;exitDx=0;exitDy=0;dashed=1;endFill=0;endSize=6;startArrow=open;startFill=0;exitPerimeter=0;startSize=10;" parent="1" source="kB-tPW7IoPf83LC5nT6U-3" edge="1">
          <mxGeometry width="50" height="50" relative="1" as="geometry">
            <mxPoint x="369.52" y="230" as="sourcePoint" />
            <mxPoint x="450" y="157.62" as="targetPoint" />
          </mxGeometry>
        </mxCell>
        <mxCell id="kB-tPW7IoPf83LC5nT6U-5" value="Thêm phim mới" style="ellipse;whiteSpace=wrap;html=1;" parent="1" vertex="1">
          <mxGeometry x="450" y="120" width="160" height="60" as="geometry" />
        </mxCell>
        <mxCell id="kB-tPW7IoPf83LC5nT6U-6" value="" style="endArrow=none;html=1;rounded=0;exitX=1;exitY=0.5;exitDx=0;exitDy=0;entryX=0;entryY=0.5;entryDx=0;entryDy=0;dashed=1;endFill=0;endSize=6;startArrow=open;startFill=0;startSize=10;" parent="1" source="kB-tPW7IoPf83LC5nT6U-3" target="kB-tPW7IoPf83LC5nT6U-7" edge="1">
          <mxGeometry width="50" height="50" relative="1" as="geometry">
            <mxPoint x="380" y="370" as="sourcePoint" />
            <mxPoint x="420" y="300" as="targetPoint" />
          </mxGeometry>
        </mxCell>
        <mxCell id="kB-tPW7IoPf83LC5nT6U-7" value="Cập nhật thông tin phim" style="ellipse;whiteSpace=wrap;html=1;" parent="1" vertex="1">
          <mxGeometry x="511" y="218" width="160" height="60" as="geometry" />
        </mxCell>
        <mxCell id="kB-tPW7IoPf83LC5nT6U-8" value="" style="endArrow=none;html=1;rounded=0;exitX=1;exitY=1;exitDx=0;exitDy=0;dashed=1;startArrow=open;startFill=0;endFill=0;startSize=10;" parent="1" source="kB-tPW7IoPf83LC5nT6U-3" target="kB-tPW7IoPf83LC5nT6U-9" edge="1">
          <mxGeometry width="50" height="50" relative="1" as="geometry">
            <mxPoint x="440" y="230" as="sourcePoint" />
            <mxPoint x="390" y="410" as="targetPoint" />
          </mxGeometry>
        </mxCell>
        <mxCell id="kB-tPW7IoPf83LC5nT6U-9" value="Xoá phim" style="ellipse;whiteSpace=wrap;html=1;" parent="1" vertex="1">
          <mxGeometry x="450" y="330" width="160" height="60" as="geometry" />
        </mxCell>
        <mxCell id="kB-tPW7IoPf83LC5nT6U-12" value="&amp;lt;&amp;lt;extend&amp;gt;&amp;gt;" style="text;html=1;align=center;verticalAlign=middle;resizable=0;points=[];autosize=1;strokeColor=none;fillColor=none;" parent="1" vertex="1">
          <mxGeometry x="375" y="268" width="90" height="30" as="geometry" />
        </mxCell>
        <mxCell id="kB-tPW7IoPf83LC5nT6U-13" value="&amp;lt;&amp;lt;extend&amp;gt;&amp;gt;" style="text;html=1;align=center;verticalAlign=middle;resizable=0;points=[];autosize=1;strokeColor=none;fillColor=none;" parent="1" vertex="1">
          <mxGeometry x="350" y="160" width="90" height="30" as="geometry" />
        </mxCell>
        <mxCell id="kB-tPW7IoPf83LC5nT6U-14" value="&amp;lt;&amp;lt;extend&amp;gt;&amp;gt;" style="text;html=1;align=center;verticalAlign=middle;resizable=0;points=[];autosize=1;strokeColor=none;fillColor=none;" parent="1" vertex="1">
          <mxGeometry x="414" y="218" width="90" height="30" as="geometry" />
        </mxCell>
        <mxCell id="hUGrxtFdEdaJlyFeEyXl-1" value="Chủ rạp" style="shape=umlActor;verticalLabelPosition=bottom;verticalAlign=top;html=1;outlineConnect=0;" parent="1" vertex="1">
          <mxGeometry x="130" y="570" width="30" height="60" as="geometry" />
        </mxCell>
        <mxCell id="hUGrxtFdEdaJlyFeEyXl-2" value="" style="endArrow=none;html=1;rounded=0;" parent="1" target="hUGrxtFdEdaJlyFeEyXl-3" edge="1">
          <mxGeometry width="50" height="50" relative="1" as="geometry">
            <mxPoint x="180" y="600" as="sourcePoint" />
            <mxPoint x="270" y="600" as="targetPoint" />
          </mxGeometry>
        </mxCell>
        <mxCell id="hUGrxtFdEdaJlyFeEyXl-3" value="Thêm phim" style="ellipse;whiteSpace=wrap;html=1;" parent="1" vertex="1">
          <mxGeometry x="250" y="570" width="120" height="60" as="geometry" />
        </mxCell>
        <mxCell id="hUGrxtFdEdaJlyFeEyXl-4" value="" style="endArrow=none;html=1;rounded=0;entryX=0.967;entryY=0.213;entryDx=0;entryDy=0;dashed=1;endFill=0;endSize=6;startArrow=open;startFill=0;startSize=10;entryPerimeter=0;exitX=0.05;exitY=0.627;exitDx=0;exitDy=0;exitPerimeter=0;" parent="1" source="hUGrxtFdEdaJlyFeEyXl-5" target="hUGrxtFdEdaJlyFeEyXl-3" edge="1">
          <mxGeometry width="50" height="50" relative="1" as="geometry">
            <mxPoint x="470" y="480" as="sourcePoint" />
            <mxPoint x="450" y="527.62" as="targetPoint" />
          </mxGeometry>
        </mxCell>
        <mxCell id="hUGrxtFdEdaJlyFeEyXl-5" value="Nhập thông tin phim" style="ellipse;whiteSpace=wrap;html=1;" parent="1" vertex="1">
          <mxGeometry x="490" y="490" width="160" height="60" as="geometry" />
        </mxCell>
        <mxCell id="hUGrxtFdEdaJlyFeEyXl-6" value="" style="endArrow=none;html=1;rounded=0;entryX=1;entryY=0.693;entryDx=0;entryDy=0;dashed=1;endFill=0;endSize=6;startArrow=open;startFill=0;startSize=10;entryPerimeter=0;exitX=0.009;exitY=0.62;exitDx=0;exitDy=0;exitPerimeter=0;" parent="1" source="hUGrxtFdEdaJlyFeEyXl-7" target="hUGrxtFdEdaJlyFeEyXl-3" edge="1">
          <mxGeometry width="50" height="50" relative="1" as="geometry">
            <mxPoint x="540" y="700" as="sourcePoint" />
            <mxPoint x="420" y="670" as="targetPoint" />
          </mxGeometry>
        </mxCell>
        <mxCell id="hUGrxtFdEdaJlyFeEyXl-7" value="Lưu thông tin phim mới" style="ellipse;whiteSpace=wrap;html=1;" parent="1" vertex="1">
          <mxGeometry x="511" y="588" width="160" height="60" as="geometry" />
        </mxCell>
        <mxCell id="hUGrxtFdEdaJlyFeEyXl-11" value="&amp;lt;&amp;lt;include&amp;gt;&amp;gt;" style="text;html=1;align=center;verticalAlign=middle;resizable=0;points=[];autosize=1;strokeColor=none;fillColor=none;" parent="1" vertex="1">
          <mxGeometry x="370" y="530" width="90" height="30" as="geometry" />
        </mxCell>
        <mxCell id="hUGrxtFdEdaJlyFeEyXl-12" value="&amp;lt;&amp;lt;include&amp;gt;&amp;gt;" style="text;html=1;align=center;verticalAlign=middle;resizable=0;points=[];autosize=1;strokeColor=none;fillColor=none;" parent="1" vertex="1">
          <mxGeometry x="400" y="600" width="90" height="30" as="geometry" />
        </mxCell>
        <mxCell id="e-iHX5W5tbcuw145vhXT-1" value="" style="endArrow=none;html=1;rounded=0;dashed=1;endFill=0;endSize=6;startArrow=open;startFill=0;startSize=10;exitX=0.78;exitY=0.973;exitDx=0;exitDy=0;exitPerimeter=0;" edge="1" parent="1" source="hUGrxtFdEdaJlyFeEyXl-3">
          <mxGeometry width="50" height="50" relative="1" as="geometry">
            <mxPoint x="360" y="700" as="sourcePoint" />
            <mxPoint x="500" y="690" as="targetPoint" />
          </mxGeometry>
        </mxCell>
        <mxCell id="e-iHX5W5tbcuw145vhXT-2" value="Thông báo lỗi" style="ellipse;whiteSpace=wrap;html=1;" vertex="1" parent="1">
          <mxGeometry x="490" y="660" width="160" height="60" as="geometry" />
        </mxCell>
        <mxCell id="e-iHX5W5tbcuw145vhXT-3" value="&amp;lt;&amp;lt;extend&amp;gt;&amp;gt;" style="text;html=1;align=center;verticalAlign=middle;resizable=0;points=[];autosize=1;strokeColor=none;fillColor=none;" vertex="1" parent="1">
          <mxGeometry x="355" y="648" width="90" height="30" as="geometry" />
        </mxCell>
        <mxCell id="UcbSy9wdbSPc2bZY-fVO-1" value="Quản lí rạp" style="shape=umlActor;verticalLabelPosition=bottom;verticalAlign=top;html=1;outlineConnect=0;" vertex="1" parent="1">
          <mxGeometry x="210" y="1010" width="30" height="60" as="geometry" />
        </mxCell>
        <mxCell id="UcbSy9wdbSPc2bZY-fVO-2" value="" style="endArrow=none;html=1;rounded=0;" edge="1" parent="1" target="UcbSy9wdbSPc2bZY-fVO-3">
          <mxGeometry width="50" height="50" relative="1" as="geometry">
            <mxPoint x="260" y="1040" as="sourcePoint" />
            <mxPoint x="350" y="1040" as="targetPoint" />
          </mxGeometry>
        </mxCell>
        <mxCell id="UcbSy9wdbSPc2bZY-fVO-3" value="Thiết lập lịch chiếu" style="ellipse;whiteSpace=wrap;html=1;" vertex="1" parent="1">
          <mxGeometry x="330" y="1010" width="120" height="60" as="geometry" />
        </mxCell>
        <mxCell id="UcbSy9wdbSPc2bZY-fVO-4" value="" style="endArrow=none;html=1;rounded=0;entryX=0.967;entryY=0.213;entryDx=0;entryDy=0;dashed=1;endFill=0;endSize=6;startArrow=open;startFill=0;startSize=10;entryPerimeter=0;exitX=0.05;exitY=0.627;exitDx=0;exitDy=0;exitPerimeter=0;" edge="1" parent="1" source="UcbSy9wdbSPc2bZY-fVO-5" target="UcbSy9wdbSPc2bZY-fVO-3">
          <mxGeometry width="50" height="50" relative="1" as="geometry">
            <mxPoint x="550" y="920" as="sourcePoint" />
            <mxPoint x="530" y="967.62" as="targetPoint" />
          </mxGeometry>
        </mxCell>
        <mxCell id="UcbSy9wdbSPc2bZY-fVO-5" value="Xác nhận lưu lịch chiếu" style="ellipse;whiteSpace=wrap;html=1;" vertex="1" parent="1">
          <mxGeometry x="570" y="930" width="160" height="60" as="geometry" />
        </mxCell>
        <mxCell id="UcbSy9wdbSPc2bZY-fVO-6" value="" style="endArrow=none;html=1;rounded=0;entryX=1;entryY=0.693;entryDx=0;entryDy=0;dashed=1;endFill=0;endSize=6;startArrow=open;startFill=0;startSize=10;entryPerimeter=0;exitX=0.009;exitY=0.62;exitDx=0;exitDy=0;exitPerimeter=0;" edge="1" parent="1" source="UcbSy9wdbSPc2bZY-fVO-7" target="UcbSy9wdbSPc2bZY-fVO-3">
          <mxGeometry width="50" height="50" relative="1" as="geometry">
            <mxPoint x="620" y="1140" as="sourcePoint" />
            <mxPoint x="500" y="1110" as="targetPoint" />
          </mxGeometry>
        </mxCell>
        <mxCell id="UcbSy9wdbSPc2bZY-fVO-7" value="Kiểm tra thông tin lịch chiếu" style="ellipse;whiteSpace=wrap;html=1;" vertex="1" parent="1">
          <mxGeometry x="591" y="1020" width="160" height="60" as="geometry" />
        </mxCell>
        <mxCell id="UcbSy9wdbSPc2bZY-fVO-8" value="&amp;lt;&amp;lt;include&amp;gt;&amp;gt;" style="text;html=1;align=center;verticalAlign=middle;resizable=0;points=[];autosize=1;strokeColor=none;fillColor=none;" vertex="1" parent="1">
          <mxGeometry x="450" y="970" width="90" height="30" as="geometry" />
        </mxCell>
        <mxCell id="UcbSy9wdbSPc2bZY-fVO-9" value="&amp;lt;&amp;lt;include&amp;gt;&amp;gt;" style="text;html=1;align=center;verticalAlign=middle;resizable=0;points=[];autosize=1;strokeColor=none;fillColor=none;" vertex="1" parent="1">
          <mxGeometry x="480" y="1040" width="90" height="30" as="geometry" />
        </mxCell>
        <mxCell id="UcbSy9wdbSPc2bZY-fVO-10" value="" style="endArrow=none;html=1;rounded=0;dashed=1;endFill=0;endSize=6;startArrow=open;startFill=0;startSize=10;exitX=0.78;exitY=0.973;exitDx=0;exitDy=0;exitPerimeter=0;" edge="1" parent="1" source="UcbSy9wdbSPc2bZY-fVO-3">
          <mxGeometry width="50" height="50" relative="1" as="geometry">
            <mxPoint x="440" y="1140" as="sourcePoint" />
            <mxPoint x="580" y="1130" as="targetPoint" />
          </mxGeometry>
        </mxCell>
        <mxCell id="UcbSy9wdbSPc2bZY-fVO-11" value="Thông báo lỗi" style="ellipse;whiteSpace=wrap;html=1;" vertex="1" parent="1">
          <mxGeometry x="570" y="1109" width="160" height="60" as="geometry" />
        </mxCell>
        <mxCell id="UcbSy9wdbSPc2bZY-fVO-12" value="&amp;lt;&amp;lt;extend&amp;gt;&amp;gt;" style="text;html=1;align=center;verticalAlign=middle;resizable=0;points=[];autosize=1;strokeColor=none;fillColor=none;" vertex="1" parent="1">
          <mxGeometry x="435" y="1088" width="90" height="30" as="geometry" />
        </mxCell>
        <mxCell id="UcbSy9wdbSPc2bZY-fVO-13" value="" style="endArrow=none;html=1;rounded=0;entryX=0.66;entryY=-0.013;entryDx=0;entryDy=0;dashed=1;endFill=0;endSize=6;startArrow=open;startFill=0;startSize=10;entryPerimeter=0;exitX=0.05;exitY=0.627;exitDx=0;exitDy=0;exitPerimeter=0;" edge="1" parent="1" source="UcbSy9wdbSPc2bZY-fVO-14" target="UcbSy9wdbSPc2bZY-fVO-3">
          <mxGeometry width="50" height="50" relative="1" as="geometry">
            <mxPoint x="500" y="850" as="sourcePoint" />
            <mxPoint x="396" y="953" as="targetPoint" />
          </mxGeometry>
        </mxCell>
        <mxCell id="UcbSy9wdbSPc2bZY-fVO-14" value="Nhập thông tin lịch chiếu" style="ellipse;whiteSpace=wrap;html=1;" vertex="1" parent="1">
          <mxGeometry x="520" y="860" width="160" height="60" as="geometry" />
        </mxCell>
        <mxCell id="UcbSy9wdbSPc2bZY-fVO-15" value="&amp;lt;&amp;lt;include&amp;gt;&amp;gt;" style="text;html=1;align=center;verticalAlign=middle;resizable=0;points=[];autosize=1;strokeColor=none;fillColor=none;" vertex="1" parent="1">
          <mxGeometry x="400" y="900" width="90" height="30" as="geometry" />
        </mxCell>
      </root>
    </mxGraphModel>
  </diagram>
  <diagram id="AMI-VkUJ2FNRA74Qt-7F" name="Usercase_AdminTheater">
    <mxGraphModel dx="1050" dy="530" grid="1" gridSize="10" guides="1" tooltips="1" connect="1" arrows="1" fold="1" page="1" pageScale="1" pageWidth="827" pageHeight="1169" math="0" shadow="0">
      <root>
        <mxCell id="0" />
        <mxCell id="1" parent="0" />
        <mxCell id="bcw4J9o_XQOHnt4pZusH-1" value="Admin" style="shape=umlActor;verticalLabelPosition=bottom;verticalAlign=top;html=1;outlineConnect=0;" vertex="1" parent="1">
          <mxGeometry x="160" y="200" width="30" height="60" as="geometry" />
        </mxCell>
        <mxCell id="bcw4J9o_XQOHnt4pZusH-2" value="" style="endArrow=none;html=1;rounded=0;" edge="1" parent="1" target="bcw4J9o_XQOHnt4pZusH-3">
          <mxGeometry width="50" height="50" relative="1" as="geometry">
            <mxPoint x="210" y="230" as="sourcePoint" />
            <mxPoint x="300" y="230" as="targetPoint" />
          </mxGeometry>
        </mxCell>
        <mxCell id="bcw4J9o_XQOHnt4pZusH-3" value="Quản lý rạp" style="ellipse;whiteSpace=wrap;html=1;" vertex="1" parent="1">
          <mxGeometry x="280" y="200" width="120" height="60" as="geometry" />
        </mxCell>
        <mxCell id="bcw4J9o_XQOHnt4pZusH-4" value="" style="endArrow=none;html=1;rounded=0;entryX=0.003;entryY=0.627;entryDx=0;entryDy=0;entryPerimeter=0;exitX=0.92;exitY=0.22;exitDx=0;exitDy=0;dashed=1;endFill=0;endSize=6;startArrow=open;startFill=0;exitPerimeter=0;startSize=10;" edge="1" parent="1" source="bcw4J9o_XQOHnt4pZusH-3">
          <mxGeometry width="50" height="50" relative="1" as="geometry">
            <mxPoint x="399.52" y="230" as="sourcePoint" />
            <mxPoint x="480" y="157.62" as="targetPoint" />
          </mxGeometry>
        </mxCell>
        <mxCell id="bcw4J9o_XQOHnt4pZusH-5" value="Thêm rạp mới" style="ellipse;whiteSpace=wrap;html=1;" vertex="1" parent="1">
          <mxGeometry x="480" y="120" width="160" height="60" as="geometry" />
        </mxCell>
        <mxCell id="bcw4J9o_XQOHnt4pZusH-6" value="" style="endArrow=none;html=1;rounded=0;exitX=1;exitY=0.5;exitDx=0;exitDy=0;entryX=0;entryY=0.5;entryDx=0;entryDy=0;dashed=1;endFill=0;endSize=6;startArrow=open;startFill=0;startSize=10;" edge="1" parent="1" source="bcw4J9o_XQOHnt4pZusH-3" target="bcw4J9o_XQOHnt4pZusH-7">
          <mxGeometry width="50" height="50" relative="1" as="geometry">
            <mxPoint x="410" y="370" as="sourcePoint" />
            <mxPoint x="450" y="300" as="targetPoint" />
          </mxGeometry>
        </mxCell>
        <mxCell id="bcw4J9o_XQOHnt4pZusH-7" value="Cập nhật thông tin rạp" style="ellipse;whiteSpace=wrap;html=1;" vertex="1" parent="1">
          <mxGeometry x="541" y="218" width="160" height="60" as="geometry" />
        </mxCell>
        <mxCell id="bcw4J9o_XQOHnt4pZusH-8" value="" style="endArrow=none;html=1;rounded=0;exitX=1;exitY=1;exitDx=0;exitDy=0;dashed=1;startArrow=open;startFill=0;endFill=0;startSize=10;" edge="1" parent="1" source="bcw4J9o_XQOHnt4pZusH-3" target="bcw4J9o_XQOHnt4pZusH-9">
          <mxGeometry width="50" height="50" relative="1" as="geometry">
            <mxPoint x="470" y="230" as="sourcePoint" />
            <mxPoint x="420" y="410" as="targetPoint" />
          </mxGeometry>
        </mxCell>
        <mxCell id="bcw4J9o_XQOHnt4pZusH-9" value="Xoá rạp" style="ellipse;whiteSpace=wrap;html=1;" vertex="1" parent="1">
          <mxGeometry x="480" y="330" width="160" height="60" as="geometry" />
        </mxCell>
        <mxCell id="bcw4J9o_XQOHnt4pZusH-10" value="&amp;lt;&amp;lt;extend&amp;gt;&amp;gt;" style="text;html=1;align=center;verticalAlign=middle;resizable=0;points=[];autosize=1;strokeColor=none;fillColor=none;" vertex="1" parent="1">
          <mxGeometry x="405" y="268" width="90" height="30" as="geometry" />
        </mxCell>
        <mxCell id="bcw4J9o_XQOHnt4pZusH-11" value="&amp;lt;&amp;lt;extend&amp;gt;&amp;gt;" style="text;html=1;align=center;verticalAlign=middle;resizable=0;points=[];autosize=1;strokeColor=none;fillColor=none;" vertex="1" parent="1">
          <mxGeometry x="380" y="160" width="90" height="30" as="geometry" />
        </mxCell>
        <mxCell id="bcw4J9o_XQOHnt4pZusH-12" value="&amp;lt;&amp;lt;extend&amp;gt;&amp;gt;" style="text;html=1;align=center;verticalAlign=middle;resizable=0;points=[];autosize=1;strokeColor=none;fillColor=none;" vertex="1" parent="1">
          <mxGeometry x="444" y="218" width="90" height="30" as="geometry" />
        </mxCell>
      </root>
    </mxGraphModel>
  </diagram>
  <diagram id="zcXjKQ7_r5I1cN4SMMTr" name="Usercase_AdminQuanlyRap">
    <mxGraphModel dx="1050" dy="530" grid="1" gridSize="10" guides="1" tooltips="1" connect="1" arrows="1" fold="1" page="1" pageScale="1" pageWidth="827" pageHeight="1169" math="0" shadow="0">
      <root>
        <mxCell id="0" />
        <mxCell id="1" parent="0" />
        <mxCell id="O96Ama45g7nH7HtwUd8j-1" value="Admin" style="shape=umlActor;verticalLabelPosition=bottom;verticalAlign=top;html=1;outlineConnect=0;" vertex="1" parent="1">
          <mxGeometry x="50" y="270" width="30" height="60" as="geometry" />
        </mxCell>
        <mxCell id="O96Ama45g7nH7HtwUd8j-2" value="" style="endArrow=none;html=1;rounded=0;" edge="1" parent="1" target="O96Ama45g7nH7HtwUd8j-3">
          <mxGeometry width="50" height="50" relative="1" as="geometry">
            <mxPoint x="100" y="300" as="sourcePoint" />
            <mxPoint x="190" y="300" as="targetPoint" />
          </mxGeometry>
        </mxCell>
        <mxCell id="O96Ama45g7nH7HtwUd8j-3" value="Quản lý người&amp;nbsp;&lt;div&gt;quản lý rạp&lt;/div&gt;" style="ellipse;whiteSpace=wrap;html=1;" vertex="1" parent="1">
          <mxGeometry x="170" y="270" width="120" height="60" as="geometry" />
        </mxCell>
        <mxCell id="O96Ama45g7nH7HtwUd8j-4" value="" style="endArrow=none;html=1;rounded=0;entryX=0.003;entryY=0.627;entryDx=0;entryDy=0;entryPerimeter=0;exitX=0.92;exitY=0.22;exitDx=0;exitDy=0;dashed=1;endFill=0;endSize=6;startArrow=open;startFill=0;exitPerimeter=0;startSize=10;" edge="1" parent="1" source="O96Ama45g7nH7HtwUd8j-3">
          <mxGeometry width="50" height="50" relative="1" as="geometry">
            <mxPoint x="289.52" y="300" as="sourcePoint" />
            <mxPoint x="370" y="227.62" as="targetPoint" />
          </mxGeometry>
        </mxCell>
        <mxCell id="O96Ama45g7nH7HtwUd8j-5" value="Tạo tài khoản cho&lt;div&gt;người quản lý&lt;/div&gt;" style="ellipse;whiteSpace=wrap;html=1;" vertex="1" parent="1">
          <mxGeometry x="370" y="190" width="160" height="60" as="geometry" />
        </mxCell>
        <mxCell id="O96Ama45g7nH7HtwUd8j-6" value="" style="endArrow=none;html=1;rounded=0;exitX=1;exitY=0.5;exitDx=0;exitDy=0;entryX=0;entryY=0.5;entryDx=0;entryDy=0;dashed=1;endFill=0;endSize=6;startArrow=open;startFill=0;startSize=10;" edge="1" parent="1" source="O96Ama45g7nH7HtwUd8j-3" target="O96Ama45g7nH7HtwUd8j-7">
          <mxGeometry width="50" height="50" relative="1" as="geometry">
            <mxPoint x="300" y="440" as="sourcePoint" />
            <mxPoint x="340" y="370" as="targetPoint" />
          </mxGeometry>
        </mxCell>
        <mxCell id="O96Ama45g7nH7HtwUd8j-7" value="Xem thông tin tài khoản&lt;div&gt;của người quản lý&lt;/div&gt;" style="ellipse;whiteSpace=wrap;html=1;" vertex="1" parent="1">
          <mxGeometry x="431" y="288" width="160" height="60" as="geometry" />
        </mxCell>
        <mxCell id="O96Ama45g7nH7HtwUd8j-8" value="" style="endArrow=none;html=1;rounded=0;exitX=1;exitY=1;exitDx=0;exitDy=0;dashed=1;startArrow=open;startFill=0;endFill=0;startSize=10;" edge="1" parent="1" source="O96Ama45g7nH7HtwUd8j-3" target="O96Ama45g7nH7HtwUd8j-9">
          <mxGeometry width="50" height="50" relative="1" as="geometry">
            <mxPoint x="360" y="300" as="sourcePoint" />
            <mxPoint x="310" y="480" as="targetPoint" />
          </mxGeometry>
        </mxCell>
        <mxCell id="O96Ama45g7nH7HtwUd8j-9" value="Kích hoạt/Huỷ kích hoạt tài khoản của người quản lý" style="ellipse;whiteSpace=wrap;html=1;" vertex="1" parent="1">
          <mxGeometry x="370" y="400" width="180" height="60" as="geometry" />
        </mxCell>
        <mxCell id="O96Ama45g7nH7HtwUd8j-10" value="&amp;lt;&amp;lt;extend&amp;gt;&amp;gt;" style="text;html=1;align=center;verticalAlign=middle;resizable=0;points=[];autosize=1;strokeColor=none;fillColor=none;" vertex="1" parent="1">
          <mxGeometry x="295" y="338" width="90" height="30" as="geometry" />
        </mxCell>
        <mxCell id="O96Ama45g7nH7HtwUd8j-11" value="&amp;lt;&amp;lt;extend&amp;gt;&amp;gt;" style="text;html=1;align=center;verticalAlign=middle;resizable=0;points=[];autosize=1;strokeColor=none;fillColor=none;" vertex="1" parent="1">
          <mxGeometry x="270" y="230" width="90" height="30" as="geometry" />
        </mxCell>
        <mxCell id="O96Ama45g7nH7HtwUd8j-12" value="&amp;lt;&amp;lt;extend&amp;gt;&amp;gt;" style="text;html=1;align=center;verticalAlign=middle;resizable=0;points=[];autosize=1;strokeColor=none;fillColor=none;" vertex="1" parent="1">
          <mxGeometry x="334" y="288" width="90" height="30" as="geometry" />
        </mxCell>
        <mxCell id="O96Ama45g7nH7HtwUd8j-13" value="" style="endArrow=open;html=1;rounded=0;exitX=0.765;exitY=0.107;exitDx=0;exitDy=0;exitPerimeter=0;entryX=0.053;entryY=0.74;entryDx=0;entryDy=0;entryPerimeter=0;endFill=0;dashed=1;endSize=10;" edge="1" parent="1" source="O96Ama45g7nH7HtwUd8j-5" target="O96Ama45g7nH7HtwUd8j-14">
          <mxGeometry width="50" height="50" relative="1" as="geometry">
            <mxPoint x="470" y="170" as="sourcePoint" />
            <mxPoint x="540" y="120" as="targetPoint" />
          </mxGeometry>
        </mxCell>
        <mxCell id="O96Ama45g7nH7HtwUd8j-14" value="Nhập thông tin của người quản lý" style="ellipse;whiteSpace=wrap;html=1;" vertex="1" parent="1">
          <mxGeometry x="690" y="80" width="120" height="80" as="geometry" />
        </mxCell>
        <mxCell id="O96Ama45g7nH7HtwUd8j-16" value="" style="endArrow=open;html=1;rounded=0;entryX=0.023;entryY=0.63;entryDx=0;entryDy=0;entryPerimeter=0;exitX=0.925;exitY=0.267;exitDx=0;exitDy=0;exitPerimeter=0;endSize=10;endFill=0;dashed=1;" edge="1" parent="1" source="O96Ama45g7nH7HtwUd8j-5" target="O96Ama45g7nH7HtwUd8j-17">
          <mxGeometry width="50" height="50" relative="1" as="geometry">
            <mxPoint x="530" y="200" as="sourcePoint" />
            <mxPoint x="590" y="170" as="targetPoint" />
          </mxGeometry>
        </mxCell>
        <mxCell id="O96Ama45g7nH7HtwUd8j-17" value="Chọn rạp mà người&amp;nbsp;&lt;div&gt;quản lý&amp;nbsp;&lt;/div&gt;&lt;div&gt;sẽ quản lý&lt;/div&gt;" style="ellipse;whiteSpace=wrap;html=1;" vertex="1" parent="1">
          <mxGeometry x="670" y="170" width="120" height="80" as="geometry" />
        </mxCell>
        <mxCell id="O96Ama45g7nH7HtwUd8j-18" value="" style="endArrow=open;html=1;rounded=0;exitX=1;exitY=0.5;exitDx=0;exitDy=0;entryX=0;entryY=0.5;entryDx=0;entryDy=0;endSize=10;endFill=0;dashed=1;" edge="1" parent="1" source="O96Ama45g7nH7HtwUd8j-5" target="O96Ama45g7nH7HtwUd8j-19">
          <mxGeometry width="50" height="50" relative="1" as="geometry">
            <mxPoint x="590" y="270" as="sourcePoint" />
            <mxPoint x="640" y="220" as="targetPoint" />
          </mxGeometry>
        </mxCell>
        <mxCell id="O96Ama45g7nH7HtwUd8j-19" value="Xác nhận lưu thông&amp;nbsp;&lt;div&gt;tin tài khoản&lt;/div&gt;" style="ellipse;whiteSpace=wrap;html=1;" vertex="1" parent="1">
          <mxGeometry x="640" y="263" width="120" height="80" as="geometry" />
        </mxCell>
        <mxCell id="O96Ama45g7nH7HtwUd8j-26" value="" style="endArrow=none;html=1;rounded=0;exitX=0.633;exitY=0.013;exitDx=0;exitDy=0;exitPerimeter=0;entryX=0.5;entryY=1;entryDx=0;entryDy=0;endFill=0;endSize=6;startSize=10;startArrow=open;startFill=0;dashed=1;" edge="1" parent="1" source="O96Ama45g7nH7HtwUd8j-3" target="O96Ama45g7nH7HtwUd8j-27">
          <mxGeometry width="50" height="50" relative="1" as="geometry">
            <mxPoint x="430" y="300" as="sourcePoint" />
            <mxPoint x="300" y="160" as="targetPoint" />
          </mxGeometry>
        </mxCell>
        <mxCell id="O96Ama45g7nH7HtwUd8j-27" value="Cập nhật thông tin tài khoản cho&amp;nbsp;&lt;div&gt;người quản lý&lt;/div&gt;" style="ellipse;whiteSpace=wrap;html=1;" vertex="1" parent="1">
          <mxGeometry x="220" y="80" width="180" height="80" as="geometry" />
        </mxCell>
        <mxCell id="O96Ama45g7nH7HtwUd8j-28" value="" style="endArrow=open;html=1;rounded=0;exitX=1;exitY=0;exitDx=0;exitDy=0;entryX=0.025;entryY=0.645;entryDx=0;entryDy=0;entryPerimeter=0;endFill=0;endSize=10;dashed=1;" edge="1" parent="1" source="O96Ama45g7nH7HtwUd8j-27" target="O96Ama45g7nH7HtwUd8j-29">
          <mxGeometry width="50" height="50" relative="1" as="geometry">
            <mxPoint x="390" y="90" as="sourcePoint" />
            <mxPoint x="440" y="40" as="targetPoint" />
          </mxGeometry>
        </mxCell>
        <mxCell id="O96Ama45g7nH7HtwUd8j-29" value="Thay đổi rạp&amp;nbsp;&lt;div&gt;quản lý&lt;/div&gt;" style="ellipse;whiteSpace=wrap;html=1;" vertex="1" parent="1">
          <mxGeometry x="451" width="120" height="50" as="geometry" />
        </mxCell>
        <mxCell id="O96Ama45g7nH7HtwUd8j-30" value="" style="endArrow=open;html=1;rounded=0;exitX=1;exitY=0.5;exitDx=0;exitDy=0;entryX=0;entryY=0.5;entryDx=0;entryDy=0;dashed=1;endFill=0;endSize=10;" edge="1" parent="1" source="O96Ama45g7nH7HtwUd8j-27" target="O96Ama45g7nH7HtwUd8j-31">
          <mxGeometry width="50" height="50" relative="1" as="geometry">
            <mxPoint x="420" y="130" as="sourcePoint" />
            <mxPoint x="460" y="110" as="targetPoint" />
          </mxGeometry>
        </mxCell>
        <mxCell id="O96Ama45g7nH7HtwUd8j-31" value="Xác nhận thay đổi" style="ellipse;whiteSpace=wrap;html=1;" vertex="1" parent="1">
          <mxGeometry x="530" y="80" width="120" height="50" as="geometry" />
        </mxCell>
        <mxCell id="O96Ama45g7nH7HtwUd8j-32" value="&amp;lt;&amp;lt;extend&amp;gt;&amp;gt;" style="text;html=1;align=center;verticalAlign=middle;resizable=0;points=[];autosize=1;strokeColor=none;fillColor=none;" vertex="1" parent="1">
          <mxGeometry x="240" y="190" width="90" height="30" as="geometry" />
        </mxCell>
        <mxCell id="O96Ama45g7nH7HtwUd8j-33" value="&amp;lt;&amp;lt;include&amp;gt;&amp;gt;" style="text;html=1;align=center;verticalAlign=middle;resizable=0;points=[];autosize=1;strokeColor=none;fillColor=none;" vertex="1" parent="1">
          <mxGeometry x="354" y="30" width="90" height="30" as="geometry" />
        </mxCell>
        <mxCell id="O96Ama45g7nH7HtwUd8j-34" value="&amp;lt;&amp;lt;include&amp;gt;&amp;gt;" style="text;html=1;align=center;verticalAlign=middle;resizable=0;points=[];autosize=1;strokeColor=none;fillColor=none;" vertex="1" parent="1">
          <mxGeometry x="414" y="80" width="90" height="30" as="geometry" />
        </mxCell>
        <mxCell id="O96Ama45g7nH7HtwUd8j-35" value="&amp;lt;&amp;lt;include&amp;gt;&amp;gt;" style="text;html=1;align=center;verticalAlign=middle;resizable=0;points=[];autosize=1;strokeColor=none;fillColor=none;" vertex="1" parent="1">
          <mxGeometry x="535" y="138" width="90" height="30" as="geometry" />
        </mxCell>
        <mxCell id="O96Ama45g7nH7HtwUd8j-36" value="&amp;lt;&amp;lt;include&amp;gt;&amp;gt;" style="text;html=1;align=center;verticalAlign=middle;resizable=0;points=[];autosize=1;strokeColor=none;fillColor=none;" vertex="1" parent="1">
          <mxGeometry x="560" y="190" width="90" height="30" as="geometry" />
        </mxCell>
        <mxCell id="O96Ama45g7nH7HtwUd8j-37" value="&amp;lt;&amp;lt;include&amp;gt;&amp;gt;" style="text;html=1;align=center;verticalAlign=middle;resizable=0;points=[];autosize=1;strokeColor=none;fillColor=none;" vertex="1" parent="1">
          <mxGeometry x="560" y="240" width="90" height="30" as="geometry" />
        </mxCell>
      </root>
    </mxGraphModel>
  </diagram>
  <diagram id="0QsFG6ehcuByMRjLwqbY" name="Usercase_Admin_Revenue">
    <mxGraphModel dx="1050" dy="530" grid="1" gridSize="10" guides="1" tooltips="1" connect="1" arrows="1" fold="1" page="1" pageScale="1" pageWidth="827" pageHeight="1169" math="0" shadow="0">
      <root>
        <mxCell id="0" />
        <mxCell id="1" parent="0" />
        <mxCell id="ls0szzUwNwXNfArI-6Gm-1" value="Admin" style="shape=umlActor;verticalLabelPosition=bottom;verticalAlign=top;html=1;outlineConnect=0;" vertex="1" parent="1">
          <mxGeometry x="143" y="210" width="30" height="60" as="geometry" />
        </mxCell>
        <mxCell id="ls0szzUwNwXNfArI-6Gm-2" value="" style="endArrow=none;html=1;rounded=0;" edge="1" parent="1" target="ls0szzUwNwXNfArI-6Gm-3">
          <mxGeometry width="50" height="50" relative="1" as="geometry">
            <mxPoint x="193" y="240" as="sourcePoint" />
            <mxPoint x="283" y="240" as="targetPoint" />
          </mxGeometry>
        </mxCell>
        <mxCell id="ls0szzUwNwXNfArI-6Gm-3" value="Quản lý doanh thu" style="ellipse;whiteSpace=wrap;html=1;" vertex="1" parent="1">
          <mxGeometry x="263" y="210" width="120" height="60" as="geometry" />
        </mxCell>
        <mxCell id="ls0szzUwNwXNfArI-6Gm-4" value="" style="endArrow=none;html=1;rounded=0;entryX=0.04;entryY=0.647;entryDx=0;entryDy=0;exitX=1;exitY=0.5;exitDx=0;exitDy=0;dashed=1;endFill=0;endSize=6;startArrow=open;startFill=0;startSize=10;entryPerimeter=0;" edge="1" parent="1" source="ls0szzUwNwXNfArI-6Gm-3" target="ls0szzUwNwXNfArI-6Gm-5">
          <mxGeometry width="50" height="50" relative="1" as="geometry">
            <mxPoint x="382.52" y="240" as="sourcePoint" />
            <mxPoint x="463" y="167.62" as="targetPoint" />
          </mxGeometry>
        </mxCell>
        <mxCell id="ls0szzUwNwXNfArI-6Gm-5" value="Xem thống kê doanh thu của từng rạp" style="ellipse;whiteSpace=wrap;html=1;" vertex="1" parent="1">
          <mxGeometry x="470" y="130" width="170" height="70" as="geometry" />
        </mxCell>
        <mxCell id="ls0szzUwNwXNfArI-6Gm-11" value="&amp;lt;&amp;lt;extend&amp;gt;&amp;gt;" style="text;html=1;align=center;verticalAlign=middle;resizable=0;points=[];autosize=1;strokeColor=none;fillColor=none;" vertex="1" parent="1">
          <mxGeometry x="383" y="180" width="90" height="30" as="geometry" />
        </mxCell>
        <mxCell id="ls0szzUwNwXNfArI-6Gm-13" value="" style="endArrow=none;html=1;rounded=0;entryX=0;entryY=0.5;entryDx=0;entryDy=0;exitX=0.992;exitY=0.627;exitDx=0;exitDy=0;dashed=1;endFill=0;endSize=6;startArrow=open;startFill=0;startSize=10;exitPerimeter=0;" edge="1" parent="1" target="ls0szzUwNwXNfArI-6Gm-14" source="ls0szzUwNwXNfArI-6Gm-3">
          <mxGeometry width="50" height="50" relative="1" as="geometry">
            <mxPoint x="453" y="390" as="sourcePoint" />
            <mxPoint x="533" y="317.62" as="targetPoint" />
          </mxGeometry>
        </mxCell>
        <mxCell id="ls0szzUwNwXNfArI-6Gm-14" value="Xem thống kê doanh thu của&lt;div&gt;tất cả các rạp&lt;/div&gt;" style="ellipse;whiteSpace=wrap;html=1;" vertex="1" parent="1">
          <mxGeometry x="520" y="230" width="180" height="70" as="geometry" />
        </mxCell>
        <mxCell id="ls0szzUwNwXNfArI-6Gm-15" value="&amp;lt;&amp;lt;extend&amp;gt;&amp;gt;" style="text;html=1;align=center;verticalAlign=middle;resizable=0;points=[];autosize=1;strokeColor=none;fillColor=none;" vertex="1" parent="1">
          <mxGeometry x="410" y="250" width="90" height="30" as="geometry" />
        </mxCell>
      </root>
    </mxGraphModel>
  </diagram>
  <diagram id="tI8NMNJ5Bc73nCMx7BE7" name="HẾT PHẦN ADMIN">
    <mxGraphModel dx="1050" dy="530" grid="1" gridSize="10" guides="1" tooltips="1" connect="1" arrows="1" fold="1" page="1" pageScale="1" pageWidth="827" pageHeight="1169" math="0" shadow="0">
      <root>
        <mxCell id="0" />
        <mxCell id="1" parent="0" />
      </root>
    </mxGraphModel>
  </diagram>
  <diagram id="px-cdg5QzgeFX1yU5h-S" name="Usercase_Quanly_Room">
    <mxGraphModel dx="1050" dy="530" grid="1" gridSize="10" guides="1" tooltips="1" connect="1" arrows="1" fold="1" page="1" pageScale="1" pageWidth="827" pageHeight="1169" math="0" shadow="0">
      <root>
        <mxCell id="0" />
        <mxCell id="1" parent="0" />
        <mxCell id="tVZA9APsuSumYEP5xtsD-1" value="Quản lý rạp" style="shape=umlActor;verticalLabelPosition=bottom;verticalAlign=top;html=1;outlineConnect=0;" parent="1" vertex="1">
          <mxGeometry x="180" y="220" width="30" height="60" as="geometry" />
        </mxCell>
        <mxCell id="tVZA9APsuSumYEP5xtsD-2" value="" style="endArrow=none;html=1;rounded=0;" parent="1" target="tVZA9APsuSumYEP5xtsD-3" edge="1">
          <mxGeometry width="50" height="50" relative="1" as="geometry">
            <mxPoint x="230" y="250" as="sourcePoint" />
            <mxPoint x="320" y="250" as="targetPoint" />
          </mxGeometry>
        </mxCell>
        <mxCell id="tVZA9APsuSumYEP5xtsD-3" value="Quản lý phòng" style="ellipse;whiteSpace=wrap;html=1;" parent="1" vertex="1">
          <mxGeometry x="300" y="220" width="120" height="60" as="geometry" />
        </mxCell>
        <mxCell id="tVZA9APsuSumYEP5xtsD-4" value="" style="endArrow=none;html=1;rounded=0;entryX=0.003;entryY=0.627;entryDx=0;entryDy=0;entryPerimeter=0;exitX=0.92;exitY=0.22;exitDx=0;exitDy=0;dashed=1;endFill=0;endSize=6;startArrow=open;startFill=0;exitPerimeter=0;startSize=10;" parent="1" source="tVZA9APsuSumYEP5xtsD-3" edge="1">
          <mxGeometry width="50" height="50" relative="1" as="geometry">
            <mxPoint x="419.52" y="250" as="sourcePoint" />
            <mxPoint x="500" y="177.62" as="targetPoint" />
          </mxGeometry>
        </mxCell>
        <mxCell id="tVZA9APsuSumYEP5xtsD-5" value="Thêm phòng mới" style="ellipse;whiteSpace=wrap;html=1;" parent="1" vertex="1">
          <mxGeometry x="500" y="140" width="160" height="60" as="geometry" />
        </mxCell>
        <mxCell id="tVZA9APsuSumYEP5xtsD-6" value="" style="endArrow=none;html=1;rounded=0;exitX=1;exitY=0.5;exitDx=0;exitDy=0;entryX=0;entryY=0.5;entryDx=0;entryDy=0;dashed=1;endFill=0;endSize=6;startArrow=open;startFill=0;startSize=10;" parent="1" source="tVZA9APsuSumYEP5xtsD-3" target="tVZA9APsuSumYEP5xtsD-7" edge="1">
          <mxGeometry width="50" height="50" relative="1" as="geometry">
            <mxPoint x="430" y="390" as="sourcePoint" />
            <mxPoint x="470" y="320" as="targetPoint" />
          </mxGeometry>
        </mxCell>
        <mxCell id="tVZA9APsuSumYEP5xtsD-7" value="Cập nhật thông tin phòng" style="ellipse;whiteSpace=wrap;html=1;" parent="1" vertex="1">
          <mxGeometry x="561" y="238" width="160" height="60" as="geometry" />
        </mxCell>
        <mxCell id="tVZA9APsuSumYEP5xtsD-8" value="" style="endArrow=none;html=1;rounded=0;exitX=1;exitY=1;exitDx=0;exitDy=0;dashed=1;startArrow=open;startFill=0;endFill=0;startSize=10;" parent="1" source="tVZA9APsuSumYEP5xtsD-3" target="tVZA9APsuSumYEP5xtsD-9" edge="1">
          <mxGeometry width="50" height="50" relative="1" as="geometry">
            <mxPoint x="490" y="250" as="sourcePoint" />
            <mxPoint x="440" y="430" as="targetPoint" />
          </mxGeometry>
        </mxCell>
        <mxCell id="tVZA9APsuSumYEP5xtsD-9" value="Xoá phòng" style="ellipse;whiteSpace=wrap;html=1;" parent="1" vertex="1">
          <mxGeometry x="500" y="350" width="160" height="60" as="geometry" />
        </mxCell>
        <mxCell id="tVZA9APsuSumYEP5xtsD-10" value="&amp;lt;&amp;lt;extend&amp;gt;&amp;gt;" style="text;html=1;align=center;verticalAlign=middle;resizable=0;points=[];autosize=1;strokeColor=none;fillColor=none;" parent="1" vertex="1">
          <mxGeometry x="425" y="288" width="90" height="30" as="geometry" />
        </mxCell>
        <mxCell id="tVZA9APsuSumYEP5xtsD-11" value="&amp;lt;&amp;lt;extend&amp;gt;&amp;gt;" style="text;html=1;align=center;verticalAlign=middle;resizable=0;points=[];autosize=1;strokeColor=none;fillColor=none;" parent="1" vertex="1">
          <mxGeometry x="400" y="180" width="90" height="30" as="geometry" />
        </mxCell>
        <mxCell id="tVZA9APsuSumYEP5xtsD-12" value="&amp;lt;&amp;lt;extend&amp;gt;&amp;gt;" style="text;html=1;align=center;verticalAlign=middle;resizable=0;points=[];autosize=1;strokeColor=none;fillColor=none;" parent="1" vertex="1">
          <mxGeometry x="464" y="238" width="90" height="30" as="geometry" />
        </mxCell>
        <mxCell id="mrKMt3GuHs6Bpvk5bohr-1" value="Quản lý rạp" style="shape=umlActor;verticalLabelPosition=bottom;verticalAlign=top;html=1;outlineConnect=0;" vertex="1" parent="1">
          <mxGeometry x="230" y="650" width="30" height="60" as="geometry" />
        </mxCell>
        <mxCell id="mrKMt3GuHs6Bpvk5bohr-2" value="" style="endArrow=none;html=1;rounded=0;" edge="1" parent="1" target="mrKMt3GuHs6Bpvk5bohr-3">
          <mxGeometry width="50" height="50" relative="1" as="geometry">
            <mxPoint x="280" y="680" as="sourcePoint" />
            <mxPoint x="370" y="680" as="targetPoint" />
          </mxGeometry>
        </mxCell>
        <mxCell id="mrKMt3GuHs6Bpvk5bohr-3" value="Thiết lập lịch chiếu" style="ellipse;whiteSpace=wrap;html=1;" vertex="1" parent="1">
          <mxGeometry x="350" y="650" width="120" height="60" as="geometry" />
        </mxCell>
        <mxCell id="mrKMt3GuHs6Bpvk5bohr-4" value="" style="endArrow=none;html=1;rounded=0;entryX=0.003;entryY=0.627;entryDx=0;entryDy=0;entryPerimeter=0;exitX=0.92;exitY=0.22;exitDx=0;exitDy=0;dashed=1;endFill=0;endSize=6;startArrow=open;startFill=0;exitPerimeter=0;startSize=10;" edge="1" parent="1" source="mrKMt3GuHs6Bpvk5bohr-3">
          <mxGeometry width="50" height="50" relative="1" as="geometry">
            <mxPoint x="469.52" y="680" as="sourcePoint" />
            <mxPoint x="550" y="607.62" as="targetPoint" />
          </mxGeometry>
        </mxCell>
        <mxCell id="mrKMt3GuHs6Bpvk5bohr-5" value="Nhập thông tin lịch chiếu" style="ellipse;whiteSpace=wrap;html=1;" vertex="1" parent="1">
          <mxGeometry x="550" y="570" width="160" height="60" as="geometry" />
        </mxCell>
        <mxCell id="mrKMt3GuHs6Bpvk5bohr-6" value="" style="endArrow=none;html=1;rounded=0;exitX=1;exitY=0.5;exitDx=0;exitDy=0;entryX=0;entryY=0.5;entryDx=0;entryDy=0;dashed=1;endFill=0;endSize=6;startArrow=open;startFill=0;startSize=10;" edge="1" parent="1" source="mrKMt3GuHs6Bpvk5bohr-3" target="mrKMt3GuHs6Bpvk5bohr-7">
          <mxGeometry width="50" height="50" relative="1" as="geometry">
            <mxPoint x="480" y="820" as="sourcePoint" />
            <mxPoint x="520" y="750" as="targetPoint" />
          </mxGeometry>
        </mxCell>
        <mxCell id="mrKMt3GuHs6Bpvk5bohr-7" value="Xác nhận lưu lịch chiếu" style="ellipse;whiteSpace=wrap;html=1;" vertex="1" parent="1">
          <mxGeometry x="611" y="668" width="160" height="60" as="geometry" />
        </mxCell>
        <mxCell id="mrKMt3GuHs6Bpvk5bohr-8" value="" style="endArrow=none;html=1;rounded=0;exitX=1;exitY=1;exitDx=0;exitDy=0;dashed=1;startArrow=open;startFill=0;endFill=0;startSize=10;" edge="1" parent="1" source="mrKMt3GuHs6Bpvk5bohr-3" target="mrKMt3GuHs6Bpvk5bohr-9">
          <mxGeometry width="50" height="50" relative="1" as="geometry">
            <mxPoint x="540" y="680" as="sourcePoint" />
            <mxPoint x="490" y="860" as="targetPoint" />
          </mxGeometry>
        </mxCell>
        <mxCell id="mrKMt3GuHs6Bpvk5bohr-9" value="Xoá phòng" style="ellipse;whiteSpace=wrap;html=1;" vertex="1" parent="1">
          <mxGeometry x="440" y="820" width="160" height="60" as="geometry" />
        </mxCell>
        <mxCell id="mrKMt3GuHs6Bpvk5bohr-10" value="&amp;lt;&amp;lt;extend&amp;gt;&amp;gt;" style="text;html=1;align=center;verticalAlign=middle;resizable=0;points=[];autosize=1;strokeColor=none;fillColor=none;" vertex="1" parent="1">
          <mxGeometry x="475" y="718" width="90" height="30" as="geometry" />
        </mxCell>
        <mxCell id="mrKMt3GuHs6Bpvk5bohr-11" value="&amp;lt;&amp;lt;extend&amp;gt;&amp;gt;" style="text;html=1;align=center;verticalAlign=middle;resizable=0;points=[];autosize=1;strokeColor=none;fillColor=none;" vertex="1" parent="1">
          <mxGeometry x="450" y="610" width="90" height="30" as="geometry" />
        </mxCell>
        <mxCell id="mrKMt3GuHs6Bpvk5bohr-12" value="&amp;lt;&amp;lt;extend&amp;gt;&amp;gt;" style="text;html=1;align=center;verticalAlign=middle;resizable=0;points=[];autosize=1;strokeColor=none;fillColor=none;" vertex="1" parent="1">
          <mxGeometry x="514" y="668" width="90" height="30" as="geometry" />
        </mxCell>
      </root>
    </mxGraphModel>
  </diagram>
  <diagram id="PxwFj59TyJt1xx_ro0pl" name="Usecase_Quanlyrap_revenue">
    <mxGraphModel dx="1050" dy="530" grid="1" gridSize="10" guides="1" tooltips="1" connect="1" arrows="1" fold="1" page="1" pageScale="1" pageWidth="827" pageHeight="1169" math="0" shadow="0">
      <root>
        <mxCell id="0" />
        <mxCell id="1" parent="0" />
        <mxCell id="_a5hmKSTZGlbHqhnrfAA-1" value="Quản lý rạp" style="shape=umlActor;verticalLabelPosition=bottom;verticalAlign=top;html=1;outlineConnect=0;" vertex="1" parent="1">
          <mxGeometry x="100" y="210" width="30" height="60" as="geometry" />
        </mxCell>
        <mxCell id="_a5hmKSTZGlbHqhnrfAA-2" value="" style="endArrow=none;html=1;rounded=0;" edge="1" parent="1" target="_a5hmKSTZGlbHqhnrfAA-3">
          <mxGeometry width="50" height="50" relative="1" as="geometry">
            <mxPoint x="150" y="240" as="sourcePoint" />
            <mxPoint x="240" y="240" as="targetPoint" />
          </mxGeometry>
        </mxCell>
        <mxCell id="_a5hmKSTZGlbHqhnrfAA-3" value="Quản lý doanh thu của từng phim" style="ellipse;whiteSpace=wrap;html=1;" vertex="1" parent="1">
          <mxGeometry x="220" y="210" width="120" height="60" as="geometry" />
        </mxCell>
        <mxCell id="_a5hmKSTZGlbHqhnrfAA-4" value="" style="endArrow=none;html=1;rounded=0;entryX=0;entryY=0.5;entryDx=0;entryDy=0;exitX=1;exitY=0.5;exitDx=0;exitDy=0;dashed=1;endFill=0;endSize=6;startArrow=open;startFill=0;startSize=10;" edge="1" parent="1" source="_a5hmKSTZGlbHqhnrfAA-3" target="_a5hmKSTZGlbHqhnrfAA-5">
          <mxGeometry width="50" height="50" relative="1" as="geometry">
            <mxPoint x="339.52" y="240" as="sourcePoint" />
            <mxPoint x="420" y="167.62" as="targetPoint" />
          </mxGeometry>
        </mxCell>
        <mxCell id="_a5hmKSTZGlbHqhnrfAA-5" value="Xem số vé của mỗi phim" style="ellipse;whiteSpace=wrap;html=1;" vertex="1" parent="1">
          <mxGeometry x="490" y="218" width="160" height="60" as="geometry" />
        </mxCell>
        <mxCell id="_a5hmKSTZGlbHqhnrfAA-6" value="" style="endArrow=none;html=1;rounded=0;exitX=0.997;exitY=0.653;exitDx=0;exitDy=0;entryX=0;entryY=0.5;entryDx=0;entryDy=0;dashed=1;endFill=0;endSize=6;startArrow=open;startFill=0;startSize=10;exitPerimeter=0;" edge="1" parent="1" source="_a5hmKSTZGlbHqhnrfAA-3" target="_a5hmKSTZGlbHqhnrfAA-7">
          <mxGeometry width="50" height="50" relative="1" as="geometry">
            <mxPoint x="350" y="380" as="sourcePoint" />
            <mxPoint x="390" y="310" as="targetPoint" />
          </mxGeometry>
        </mxCell>
        <mxCell id="_a5hmKSTZGlbHqhnrfAA-7" value="Xem doanh thu của phim" style="ellipse;whiteSpace=wrap;html=1;" vertex="1" parent="1">
          <mxGeometry x="470" y="308" width="160" height="60" as="geometry" />
        </mxCell>
        <mxCell id="_a5hmKSTZGlbHqhnrfAA-8" value="" style="endArrow=none;html=1;rounded=0;exitX=1;exitY=1;exitDx=0;exitDy=0;dashed=1;startArrow=open;startFill=0;endFill=0;startSize=10;" edge="1" parent="1" source="_a5hmKSTZGlbHqhnrfAA-3" target="_a5hmKSTZGlbHqhnrfAA-9">
          <mxGeometry width="50" height="50" relative="1" as="geometry">
            <mxPoint x="410" y="240" as="sourcePoint" />
            <mxPoint x="360" y="420" as="targetPoint" />
          </mxGeometry>
        </mxCell>
        <mxCell id="_a5hmKSTZGlbHqhnrfAA-9" value="Xem số suất chiếu phim" style="ellipse;whiteSpace=wrap;html=1;" vertex="1" parent="1">
          <mxGeometry x="321" y="400" width="160" height="60" as="geometry" />
        </mxCell>
        <mxCell id="_a5hmKSTZGlbHqhnrfAA-10" value="&amp;lt;&amp;lt;extend&amp;gt;&amp;gt;" style="text;html=1;align=center;verticalAlign=middle;resizable=0;points=[];autosize=1;strokeColor=none;fillColor=none;" vertex="1" parent="1">
          <mxGeometry x="310" y="320" width="90" height="30" as="geometry" />
        </mxCell>
        <mxCell id="_a5hmKSTZGlbHqhnrfAA-11" value="&amp;lt;&amp;lt;extend&amp;gt;&amp;gt;" style="text;html=1;align=center;verticalAlign=middle;resizable=0;points=[];autosize=1;strokeColor=none;fillColor=none;" vertex="1" parent="1">
          <mxGeometry x="369" y="210" width="90" height="30" as="geometry" />
        </mxCell>
        <mxCell id="_a5hmKSTZGlbHqhnrfAA-12" value="&amp;lt;&amp;lt;extend&amp;gt;&amp;gt;" style="text;html=1;align=center;verticalAlign=middle;resizable=0;points=[];autosize=1;strokeColor=none;fillColor=none;" vertex="1" parent="1">
          <mxGeometry x="369" y="270" width="90" height="30" as="geometry" />
        </mxCell>
        <mxCell id="sSs5-W7SexoY0HB9iXjJ-1" value="" style="endArrow=none;html=1;rounded=0;entryX=0;entryY=0.5;entryDx=0;entryDy=0;exitX=0.95;exitY=0.293;exitDx=0;exitDy=0;dashed=1;endFill=0;endSize=6;startArrow=open;startFill=0;exitPerimeter=0;startSize=10;" edge="1" parent="1" source="_a5hmKSTZGlbHqhnrfAA-3" target="sSs5-W7SexoY0HB9iXjJ-2">
          <mxGeometry width="50" height="50" relative="1" as="geometry">
            <mxPoint x="260" y="143" as="sourcePoint" />
            <mxPoint x="350" y="87.62" as="targetPoint" />
          </mxGeometry>
        </mxCell>
        <mxCell id="sSs5-W7SexoY0HB9iXjJ-2" value="Xem thông tin phim" style="ellipse;whiteSpace=wrap;html=1;" vertex="1" parent="1">
          <mxGeometry x="470" y="130" width="160" height="60" as="geometry" />
        </mxCell>
        <mxCell id="sSs5-W7SexoY0HB9iXjJ-3" value="&amp;lt;&amp;lt;extend&amp;gt;&amp;gt;" style="text;html=1;align=center;verticalAlign=middle;resizable=0;points=[];autosize=1;strokeColor=none;fillColor=none;" vertex="1" parent="1">
          <mxGeometry x="356" y="170" width="90" height="30" as="geometry" />
        </mxCell>
      </root>
    </mxGraphModel>
  </diagram>
  <diagram id="3TWC1Yf5cIGlAU1566RT" name="Usercase_Quanlyrap_Ticket">
    <mxGraphModel dx="1050" dy="530" grid="1" gridSize="10" guides="1" tooltips="1" connect="1" arrows="1" fold="1" page="1" pageScale="1" pageWidth="827" pageHeight="1169" math="0" shadow="0">
      <root>
        <mxCell id="0" />
        <mxCell id="1" parent="0" />
        <mxCell id="IHoeE-RreGnJ-hQu1uLR-1" value="Quản lý rạp" style="shape=umlActor;verticalLabelPosition=bottom;verticalAlign=top;html=1;outlineConnect=0;" vertex="1" parent="1">
          <mxGeometry x="150" y="220" width="30" height="60" as="geometry" />
        </mxCell>
        <mxCell id="IHoeE-RreGnJ-hQu1uLR-2" value="" style="endArrow=none;html=1;rounded=0;" edge="1" parent="1" target="IHoeE-RreGnJ-hQu1uLR-3">
          <mxGeometry width="50" height="50" relative="1" as="geometry">
            <mxPoint x="200" y="250" as="sourcePoint" />
            <mxPoint x="290" y="250" as="targetPoint" />
          </mxGeometry>
        </mxCell>
        <mxCell id="IHoeE-RreGnJ-hQu1uLR-3" value="Quản lý vé" style="ellipse;whiteSpace=wrap;html=1;" vertex="1" parent="1">
          <mxGeometry x="270" y="220" width="120" height="60" as="geometry" />
        </mxCell>
        <mxCell id="IHoeE-RreGnJ-hQu1uLR-4" value="" style="endArrow=none;html=1;rounded=0;entryX=0;entryY=0.5;entryDx=0;entryDy=0;exitX=0.92;exitY=0.22;exitDx=0;exitDy=0;dashed=1;endFill=0;endSize=6;startArrow=open;startFill=0;exitPerimeter=0;startSize=10;" edge="1" parent="1" source="IHoeE-RreGnJ-hQu1uLR-3" target="IHoeE-RreGnJ-hQu1uLR-5">
          <mxGeometry width="50" height="50" relative="1" as="geometry">
            <mxPoint x="389.52" y="250" as="sourcePoint" />
            <mxPoint x="470" y="177.62" as="targetPoint" />
          </mxGeometry>
        </mxCell>
        <mxCell id="IHoeE-RreGnJ-hQu1uLR-5" value="Xem số vé của mỗi phim trong mỗi suất chiếu" style="ellipse;whiteSpace=wrap;html=1;" vertex="1" parent="1">
          <mxGeometry x="550" y="160" width="160" height="60" as="geometry" />
        </mxCell>
        <mxCell id="IHoeE-RreGnJ-hQu1uLR-6" value="" style="endArrow=none;html=1;rounded=0;exitX=1;exitY=0.5;exitDx=0;exitDy=0;entryX=0;entryY=0.5;entryDx=0;entryDy=0;dashed=1;endFill=0;endSize=6;startArrow=open;startFill=0;startSize=10;" edge="1" parent="1" source="IHoeE-RreGnJ-hQu1uLR-3" target="IHoeE-RreGnJ-hQu1uLR-7">
          <mxGeometry width="50" height="50" relative="1" as="geometry">
            <mxPoint x="400" y="390" as="sourcePoint" />
            <mxPoint x="440" y="320" as="targetPoint" />
          </mxGeometry>
        </mxCell>
        <mxCell id="IHoeE-RreGnJ-hQu1uLR-7" value="Xem doanh thu của mỗi phim trong mỗi suất chiếu" style="ellipse;whiteSpace=wrap;html=1;" vertex="1" parent="1">
          <mxGeometry x="531" y="290" width="209" height="78" as="geometry" />
        </mxCell>
        <mxCell id="IHoeE-RreGnJ-hQu1uLR-11" value="&amp;lt;&amp;lt;extend&amp;gt;&amp;gt;" style="text;html=1;align=center;verticalAlign=middle;resizable=0;points=[];autosize=1;strokeColor=none;fillColor=none;" vertex="1" parent="1">
          <mxGeometry x="414" y="180" width="90" height="30" as="geometry" />
        </mxCell>
        <mxCell id="IHoeE-RreGnJ-hQu1uLR-12" value="&amp;lt;&amp;lt;extend&amp;gt;&amp;gt;" style="text;html=1;align=center;verticalAlign=middle;resizable=0;points=[];autosize=1;strokeColor=none;fillColor=none;" vertex="1" parent="1">
          <mxGeometry x="434" y="270" width="90" height="30" as="geometry" />
        </mxCell>
      </root>
    </mxGraphModel>
  </diagram>
  <diagram id="1Z2UHTQcQZwRkKjywrYv" name="Trang-12">
    <mxGraphModel dx="1313" dy="1832" grid="1" gridSize="10" guides="1" tooltips="1" connect="1" arrows="1" fold="1" page="1" pageScale="1" pageWidth="827" pageHeight="1169" math="0" shadow="0">
      <root>
        <mxCell id="0" />
        <mxCell id="1" parent="0" />
        <mxCell id="wqOe0nqeJNKqRoMGxaa2-1" value="Quản lý rạp" style="shape=umlActor;verticalLabelPosition=bottom;verticalAlign=top;html=1;outlineConnect=0;" vertex="1" parent="1">
          <mxGeometry x="100" y="228" width="30" height="60" as="geometry" />
        </mxCell>
        <mxCell id="wqOe0nqeJNKqRoMGxaa2-3" value="Đặt lịch chiếu" style="ellipse;whiteSpace=wrap;html=1;" vertex="1" parent="1">
          <mxGeometry x="400" y="100" width="120" height="60" as="geometry" />
        </mxCell>
        <mxCell id="wqOe0nqeJNKqRoMGxaa2-4" value="" style="endArrow=open;html=1;rounded=0;entryX=0;entryY=0.5;entryDx=0;entryDy=0;exitX=0.737;exitY=0.097;exitDx=0;exitDy=0;dashed=1;endFill=0;endSize=6;startArrow=none;startFill=0;startSize=10;exitPerimeter=0;" edge="1" parent="1" source="wqOe0nqeJNKqRoMGxaa2-3" target="wqOe0nqeJNKqRoMGxaa2-5">
          <mxGeometry width="50" height="50" relative="1" as="geometry">
            <mxPoint x="519.52" y="130" as="sourcePoint" />
            <mxPoint x="600" y="57.620000000000005" as="targetPoint" />
          </mxGeometry>
        </mxCell>
        <mxCell id="wqOe0nqeJNKqRoMGxaa2-5" value="Nhập thông tin cần để&amp;nbsp;&lt;div&gt;đặt lịch chiếu&lt;/div&gt;" style="ellipse;whiteSpace=wrap;html=1;" vertex="1" parent="1">
          <mxGeometry x="666" y="-60" width="160" height="60" as="geometry" />
        </mxCell>
        <mxCell id="wqOe0nqeJNKqRoMGxaa2-8" value="" style="endArrow=open;html=1;rounded=0;dashed=1;startArrow=none;startFill=0;endFill=0;startSize=10;entryX=0.058;entryY=0.32;entryDx=0;entryDy=0;entryPerimeter=0;exitX=0.963;exitY=0.717;exitDx=0;exitDy=0;exitPerimeter=0;" edge="1" parent="1" source="wqOe0nqeJNKqRoMGxaa2-5" target="wqOe0nqeJNKqRoMGxaa2-9">
          <mxGeometry width="50" height="50" relative="1" as="geometry">
            <mxPoint x="590" y="130" as="sourcePoint" />
            <mxPoint x="561" y="250" as="targetPoint" />
            <Array as="points" />
          </mxGeometry>
        </mxCell>
        <mxCell id="wqOe0nqeJNKqRoMGxaa2-9" value="Chọn các suất chiếu hiển thị trên hệ thống" style="ellipse;whiteSpace=wrap;html=1;" vertex="1" parent="1">
          <mxGeometry x="950" y="-70" width="160" height="60" as="geometry" />
        </mxCell>
        <mxCell id="wqOe0nqeJNKqRoMGxaa2-10" value="&amp;lt;&amp;lt;include&amp;gt;&amp;gt;" style="text;html=1;align=center;verticalAlign=middle;resizable=0;points=[];autosize=1;strokeColor=none;fillColor=none;" vertex="1" parent="1">
          <mxGeometry x="560" y="91" width="90" height="30" as="geometry" />
        </mxCell>
        <mxCell id="wqOe0nqeJNKqRoMGxaa2-11" value="&amp;lt;&amp;lt;include&amp;gt;&amp;gt;" style="text;html=1;align=center;verticalAlign=middle;resizable=0;points=[];autosize=1;strokeColor=none;fillColor=none;" vertex="1" parent="1">
          <mxGeometry x="531" y="20" width="90" height="30" as="geometry" />
        </mxCell>
        <mxCell id="wqOe0nqeJNKqRoMGxaa2-13" value="" style="endArrow=open;html=1;rounded=0;entryX=0;entryY=0.5;entryDx=0;entryDy=0;exitX=0.5;exitY=0;exitDx=0;exitDy=0;dashed=1;endFill=0;endSize=6;startArrow=none;startFill=0;startSize=10;" edge="1" parent="1" source="wqOe0nqeJNKqRoMGxaa2-3" target="wqOe0nqeJNKqRoMGxaa2-14">
          <mxGeometry width="50" height="50" relative="1" as="geometry">
            <mxPoint x="440" y="33" as="sourcePoint" />
            <mxPoint x="530" y="-22.379999999999995" as="targetPoint" />
          </mxGeometry>
        </mxCell>
        <mxCell id="wqOe0nqeJNKqRoMGxaa2-14" value="Chọn phim cần đặt lịch" style="ellipse;whiteSpace=wrap;html=1;" vertex="1" parent="1">
          <mxGeometry x="561" y="-140" width="160" height="60" as="geometry" />
        </mxCell>
        <mxCell id="wqOe0nqeJNKqRoMGxaa2-15" value="&amp;lt;&amp;lt;include&amp;gt;&amp;gt;" style="text;html=1;align=center;verticalAlign=middle;resizable=0;points=[];autosize=1;strokeColor=none;fillColor=none;" vertex="1" parent="1">
          <mxGeometry x="456" y="-30" width="90" height="30" as="geometry" />
        </mxCell>
        <mxCell id="wqOe0nqeJNKqRoMGxaa2-20" value="" style="endArrow=open;html=1;rounded=0;dashed=1;endSize=10;endFill=0;entryX=0;entryY=0.5;entryDx=0;entryDy=0;" edge="1" parent="1" source="wqOe0nqeJNKqRoMGxaa2-3" target="wqOe0nqeJNKqRoMGxaa2-21">
          <mxGeometry width="50" height="50" relative="1" as="geometry">
            <mxPoint x="531" y="220" as="sourcePoint" />
            <mxPoint x="701" y="330" as="targetPoint" />
          </mxGeometry>
        </mxCell>
        <mxCell id="wqOe0nqeJNKqRoMGxaa2-21" value="Lưu thông tin đặt lịch" style="ellipse;whiteSpace=wrap;html=1;" vertex="1" parent="1">
          <mxGeometry x="730" y="69" width="120" height="52" as="geometry" />
        </mxCell>
        <mxCell id="wqOe0nqeJNKqRoMGxaa2-23" value="&amp;lt;&amp;lt;include&amp;gt;&amp;gt;" style="text;html=1;align=center;verticalAlign=middle;resizable=0;points=[];autosize=1;strokeColor=none;fillColor=none;" vertex="1" parent="1">
          <mxGeometry x="820" y="-55" width="90" height="30" as="geometry" />
        </mxCell>
        <mxCell id="wqOe0nqeJNKqRoMGxaa2-26" value="Xem lịch chiếu" style="ellipse;whiteSpace=wrap;html=1;" vertex="1" parent="1">
          <mxGeometry x="760" y="180" width="120" height="60" as="geometry" />
        </mxCell>
        <mxCell id="wqOe0nqeJNKqRoMGxaa2-27" value="Quản lý lịch chiếu" style="ellipse;whiteSpace=wrap;html=1;" vertex="1" parent="1">
          <mxGeometry x="230" y="220" width="120" height="80" as="geometry" />
        </mxCell>
        <mxCell id="wqOe0nqeJNKqRoMGxaa2-28" value="Cập nhật lịch chiếu" style="ellipse;whiteSpace=wrap;html=1;" vertex="1" parent="1">
          <mxGeometry x="480" y="220" width="120" height="80" as="geometry" />
        </mxCell>
        <mxCell id="wqOe0nqeJNKqRoMGxaa2-29" value="" style="endArrow=none;html=1;rounded=0;" edge="1" parent="1" target="wqOe0nqeJNKqRoMGxaa2-27">
          <mxGeometry width="50" height="50" relative="1" as="geometry">
            <mxPoint x="140" y="260" as="sourcePoint" />
            <mxPoint x="530" y="140" as="targetPoint" />
          </mxGeometry>
        </mxCell>
        <mxCell id="wqOe0nqeJNKqRoMGxaa2-30" value="" style="endArrow=classic;html=1;rounded=0;entryX=0;entryY=1;entryDx=0;entryDy=0;exitX=1;exitY=0;exitDx=0;exitDy=0;" edge="1" parent="1" source="wqOe0nqeJNKqRoMGxaa2-27" target="wqOe0nqeJNKqRoMGxaa2-3">
          <mxGeometry width="50" height="50" relative="1" as="geometry">
            <mxPoint x="350" y="260" as="sourcePoint" />
            <mxPoint x="400" y="210" as="targetPoint" />
          </mxGeometry>
        </mxCell>
        <mxCell id="wqOe0nqeJNKqRoMGxaa2-31" value="" style="endArrow=classic;html=1;rounded=0;exitX=1;exitY=0.5;exitDx=0;exitDy=0;entryX=0;entryY=0.5;entryDx=0;entryDy=0;" edge="1" parent="1" source="wqOe0nqeJNKqRoMGxaa2-27" target="wqOe0nqeJNKqRoMGxaa2-28">
          <mxGeometry width="50" height="50" relative="1" as="geometry">
            <mxPoint x="480" y="190" as="sourcePoint" />
            <mxPoint x="530" y="140" as="targetPoint" />
          </mxGeometry>
        </mxCell>
        <mxCell id="wqOe0nqeJNKqRoMGxaa2-32" value="" style="endArrow=classic;html=1;rounded=0;exitX=1;exitY=0.5;exitDx=0;exitDy=0;entryX=0;entryY=0.5;entryDx=0;entryDy=0;" edge="1" parent="1" source="wqOe0nqeJNKqRoMGxaa2-28" target="wqOe0nqeJNKqRoMGxaa2-26">
          <mxGeometry width="50" height="50" relative="1" as="geometry">
            <mxPoint x="480" y="190" as="sourcePoint" />
            <mxPoint x="530" y="140" as="targetPoint" />
          </mxGeometry>
        </mxCell>
        <mxCell id="wqOe0nqeJNKqRoMGxaa2-33" value="Chọn phim cần cập nhật" style="ellipse;whiteSpace=wrap;html=1;" vertex="1" parent="1">
          <mxGeometry x="785" y="270" width="120" height="50" as="geometry" />
        </mxCell>
        <mxCell id="wqOe0nqeJNKqRoMGxaa2-34" value="Nhập thông tin&amp;nbsp;" style="ellipse;whiteSpace=wrap;html=1;" vertex="1" parent="1">
          <mxGeometry x="805" y="350" width="120" height="50" as="geometry" />
        </mxCell>
        <mxCell id="wqOe0nqeJNKqRoMGxaa2-35" value="" style="endArrow=classic;html=1;rounded=0;exitX=1;exitY=1;exitDx=0;exitDy=0;" edge="1" parent="1" source="wqOe0nqeJNKqRoMGxaa2-28" target="wqOe0nqeJNKqRoMGxaa2-34">
          <mxGeometry width="50" height="50" relative="1" as="geometry">
            <mxPoint x="480" y="190" as="sourcePoint" />
            <mxPoint x="530" y="140" as="targetPoint" />
          </mxGeometry>
        </mxCell>
        <mxCell id="wqOe0nqeJNKqRoMGxaa2-36" value="Lưu thông tin thay đổi" style="ellipse;whiteSpace=wrap;html=1;" vertex="1" parent="1">
          <mxGeometry x="666" y="400" width="120" height="50" as="geometry" />
        </mxCell>
        <mxCell id="wqOe0nqeJNKqRoMGxaa2-37" value="" style="endArrow=classic;html=1;rounded=0;entryX=0;entryY=0;entryDx=0;entryDy=0;exitX=0.5;exitY=1;exitDx=0;exitDy=0;" edge="1" parent="1" source="wqOe0nqeJNKqRoMGxaa2-28" target="wqOe0nqeJNKqRoMGxaa2-36">
          <mxGeometry width="50" height="50" relative="1" as="geometry">
            <mxPoint x="480" y="190" as="sourcePoint" />
            <mxPoint x="530" y="140" as="targetPoint" />
          </mxGeometry>
        </mxCell>
        <mxCell id="wqOe0nqeJNKqRoMGxaa2-38" value="" style="endArrow=classic;html=1;rounded=0;entryX=0;entryY=0.5;entryDx=0;entryDy=0;exitX=0.967;exitY=0.7;exitDx=0;exitDy=0;exitPerimeter=0;" edge="1" parent="1" source="wqOe0nqeJNKqRoMGxaa2-28" target="wqOe0nqeJNKqRoMGxaa2-33">
          <mxGeometry width="50" height="50" relative="1" as="geometry">
            <mxPoint x="480" y="190" as="sourcePoint" />
            <mxPoint x="530" y="140" as="targetPoint" />
          </mxGeometry>
        </mxCell>
      </root>
    </mxGraphModel>
  </diagram>
  <diagram id="J6bc8Hl-rt09k-EUm6G8" name="thanhtoan_KH">
    <mxGraphModel dx="1050" dy="530" grid="1" gridSize="10" guides="1" tooltips="1" connect="1" arrows="1" fold="1" page="1" pageScale="1" pageWidth="827" pageHeight="1169" math="0" shadow="0">
      <root>
        <mxCell id="0" />
        <mxCell id="1" parent="0" />
        <mxCell id="gKh-aWTtDhJrut8jLWcp-1" value="Khách hàng" style="shape=umlActor;verticalLabelPosition=bottom;verticalAlign=top;html=1;outlineConnect=0;" vertex="1" parent="1">
          <mxGeometry x="159" y="190" width="30" height="60" as="geometry" />
        </mxCell>
        <mxCell id="gKh-aWTtDhJrut8jLWcp-2" value="" style="endArrow=none;html=1;rounded=0;" edge="1" parent="1" target="gKh-aWTtDhJrut8jLWcp-3">
          <mxGeometry width="50" height="50" relative="1" as="geometry">
            <mxPoint x="209" y="220" as="sourcePoint" />
            <mxPoint x="299" y="220" as="targetPoint" />
          </mxGeometry>
        </mxCell>
        <mxCell id="gKh-aWTtDhJrut8jLWcp-3" value="Đặt vé" style="ellipse;whiteSpace=wrap;html=1;" vertex="1" parent="1">
          <mxGeometry x="279" y="190" width="120" height="60" as="geometry" />
        </mxCell>
        <mxCell id="gKh-aWTtDhJrut8jLWcp-4" value="" style="endArrow=open;html=1;rounded=0;entryX=0.5;entryY=1;entryDx=0;entryDy=0;exitX=0.5;exitY=0;exitDx=0;exitDy=0;dashed=1;endFill=0;endSize=10;" edge="1" parent="1" source="gKh-aWTtDhJrut8jLWcp-7" target="gKh-aWTtDhJrut8jLWcp-26">
          <mxGeometry width="50" height="50" relative="1" as="geometry">
            <mxPoint x="398.52" y="220" as="sourcePoint" />
            <mxPoint x="479" y="147.62" as="targetPoint" />
          </mxGeometry>
        </mxCell>
        <mxCell id="gKh-aWTtDhJrut8jLWcp-7" value="Chọn rạp và thời gian chiếu" style="ellipse;whiteSpace=wrap;html=1;" vertex="1" parent="1">
          <mxGeometry x="630" y="175" width="160" height="60" as="geometry" />
        </mxCell>
        <mxCell id="gKh-aWTtDhJrut8jLWcp-8" value="" style="endArrow=none;html=1;rounded=0;exitX=0.5;exitY=1;exitDx=0;exitDy=0;dashed=1;startArrow=open;startFill=0;endFill=0;startSize=10;" edge="1" parent="1" source="gKh-aWTtDhJrut8jLWcp-3" target="gKh-aWTtDhJrut8jLWcp-9">
          <mxGeometry width="50" height="50" relative="1" as="geometry">
            <mxPoint x="469" y="220" as="sourcePoint" />
            <mxPoint x="419" y="400" as="targetPoint" />
          </mxGeometry>
        </mxCell>
        <mxCell id="gKh-aWTtDhJrut8jLWcp-9" value="Trả về thông tin lỗi" style="ellipse;whiteSpace=wrap;html=1;" vertex="1" parent="1">
          <mxGeometry x="259" y="350" width="160" height="60" as="geometry" />
        </mxCell>
        <mxCell id="gKh-aWTtDhJrut8jLWcp-10" value="&amp;lt;&amp;lt;include&amp;gt;&amp;gt;" style="text;html=1;align=center;verticalAlign=middle;resizable=0;points=[];autosize=1;strokeColor=none;fillColor=none;" vertex="1" parent="1">
          <mxGeometry x="630" y="130" width="90" height="30" as="geometry" />
        </mxCell>
        <mxCell id="gKh-aWTtDhJrut8jLWcp-11" value="&amp;lt;&amp;lt;include&amp;gt;&amp;gt;" style="text;html=1;align=center;verticalAlign=middle;resizable=0;points=[];autosize=1;strokeColor=none;fillColor=none;" vertex="1" parent="1">
          <mxGeometry x="540" y="340" width="90" height="30" as="geometry" />
        </mxCell>
        <mxCell id="gKh-aWTtDhJrut8jLWcp-12" value="&amp;lt;&amp;lt;extend&amp;gt;&amp;gt;" style="text;html=1;align=center;verticalAlign=middle;resizable=0;points=[];autosize=1;strokeColor=none;fillColor=none;" vertex="1" parent="1">
          <mxGeometry x="300" y="290" width="90" height="30" as="geometry" />
        </mxCell>
        <mxCell id="gKh-aWTtDhJrut8jLWcp-13" value="Xem chi tiết phim" style="ellipse;whiteSpace=wrap;html=1;" vertex="1" parent="1">
          <mxGeometry x="279" y="50" width="160" height="60" as="geometry" />
        </mxCell>
        <mxCell id="gKh-aWTtDhJrut8jLWcp-14" value="Chọn số ghế&amp;nbsp;" style="ellipse;whiteSpace=wrap;html=1;" vertex="1" parent="1">
          <mxGeometry x="630" y="285" width="160" height="60" as="geometry" />
        </mxCell>
        <mxCell id="gKh-aWTtDhJrut8jLWcp-15" value="" style="endArrow=open;html=1;rounded=0;dashed=1;endFill=0;endSize=10;exitX=0.5;exitY=0;exitDx=0;exitDy=0;entryX=0.5;entryY=1;entryDx=0;entryDy=0;" edge="1" parent="1" source="gKh-aWTtDhJrut8jLWcp-14" target="gKh-aWTtDhJrut8jLWcp-7">
          <mxGeometry width="50" height="50" relative="1" as="geometry">
            <mxPoint x="450" y="205" as="sourcePoint" />
            <mxPoint x="770" y="265" as="targetPoint" />
          </mxGeometry>
        </mxCell>
        <mxCell id="gKh-aWTtDhJrut8jLWcp-16" value="&amp;lt;&amp;lt;include&amp;gt;&amp;gt;" style="text;html=1;align=center;verticalAlign=middle;resizable=0;points=[];autosize=1;strokeColor=none;fillColor=none;" vertex="1" parent="1">
          <mxGeometry x="660" y="350" width="90" height="30" as="geometry" />
        </mxCell>
        <mxCell id="gKh-aWTtDhJrut8jLWcp-17" value="Xác nhận đặt vé" style="ellipse;whiteSpace=wrap;html=1;" vertex="1" parent="1">
          <mxGeometry x="640" y="385" width="160" height="60" as="geometry" />
        </mxCell>
        <mxCell id="gKh-aWTtDhJrut8jLWcp-18" value="" style="endArrow=open;html=1;rounded=0;dashed=1;endFill=0;endSize=10;exitX=0.5;exitY=0;exitDx=0;exitDy=0;entryX=0.553;entryY=1.047;entryDx=0;entryDy=0;entryPerimeter=0;" edge="1" parent="1" source="gKh-aWTtDhJrut8jLWcp-17" target="gKh-aWTtDhJrut8jLWcp-14">
          <mxGeometry width="50" height="50" relative="1" as="geometry">
            <mxPoint x="810" y="355" as="sourcePoint" />
            <mxPoint x="810" y="405" as="targetPoint" />
          </mxGeometry>
        </mxCell>
        <mxCell id="gKh-aWTtDhJrut8jLWcp-19" value="" style="endArrow=open;html=1;rounded=0;entryX=0.612;entryY=0.013;entryDx=0;entryDy=0;entryPerimeter=0;dashed=1;endFill=0;endSize=10;" edge="1" parent="1" target="gKh-aWTtDhJrut8jLWcp-3">
          <mxGeometry width="50" height="50" relative="1" as="geometry">
            <mxPoint x="352" y="110" as="sourcePoint" />
            <mxPoint x="420.48" y="37.620000000000005" as="targetPoint" />
          </mxGeometry>
        </mxCell>
        <mxCell id="gKh-aWTtDhJrut8jLWcp-20" value="Thanh toán" style="ellipse;whiteSpace=wrap;html=1;" vertex="1" parent="1">
          <mxGeometry x="440" y="280" width="120" height="60" as="geometry" />
        </mxCell>
        <mxCell id="gKh-aWTtDhJrut8jLWcp-21" value="" style="endArrow=open;html=1;rounded=0;dashed=1;endFill=0;endSize=10;exitX=0.918;exitY=0.787;exitDx=0;exitDy=0;exitPerimeter=0;" edge="1" parent="1" source="gKh-aWTtDhJrut8jLWcp-3" target="gKh-aWTtDhJrut8jLWcp-20">
          <mxGeometry width="50" height="50" relative="1" as="geometry">
            <mxPoint x="480" y="220" as="sourcePoint" />
            <mxPoint x="480" y="301" as="targetPoint" />
          </mxGeometry>
        </mxCell>
        <mxCell id="gKh-aWTtDhJrut8jLWcp-22" value="" style="endArrow=open;html=1;rounded=0;dashed=1;endFill=0;endSize=10;exitX=1;exitY=1;exitDx=0;exitDy=0;entryX=0.013;entryY=0.39;entryDx=0;entryDy=0;entryPerimeter=0;" edge="1" parent="1" source="gKh-aWTtDhJrut8jLWcp-20" target="gKh-aWTtDhJrut8jLWcp-17">
          <mxGeometry width="50" height="50" relative="1" as="geometry">
            <mxPoint x="550" y="370" as="sourcePoint" />
            <mxPoint x="550" y="320" as="targetPoint" />
          </mxGeometry>
        </mxCell>
        <mxCell id="gKh-aWTtDhJrut8jLWcp-23" value="&amp;lt;&amp;lt;extend&amp;gt;&amp;gt;" style="text;html=1;align=center;verticalAlign=middle;resizable=0;points=[];autosize=1;strokeColor=none;fillColor=none;" vertex="1" parent="1">
          <mxGeometry x="320" y="130" width="90" height="30" as="geometry" />
        </mxCell>
        <mxCell id="gKh-aWTtDhJrut8jLWcp-24" value="&amp;lt;&amp;lt;include&amp;gt;&amp;gt;" style="text;html=1;align=center;verticalAlign=middle;resizable=0;points=[];autosize=1;strokeColor=none;fillColor=none;" vertex="1" parent="1">
          <mxGeometry x="399" y="240" width="90" height="30" as="geometry" />
        </mxCell>
        <mxCell id="gKh-aWTtDhJrut8jLWcp-25" value="&amp;lt;&amp;lt;include&amp;gt;&amp;gt;" style="text;html=1;align=center;verticalAlign=middle;resizable=0;points=[];autosize=1;strokeColor=none;fillColor=none;" vertex="1" parent="1">
          <mxGeometry x="640" y="250" width="90" height="30" as="geometry" />
        </mxCell>
        <mxCell id="gKh-aWTtDhJrut8jLWcp-26" value="Chọn phim muốn đặt" style="ellipse;whiteSpace=wrap;html=1;" vertex="1" parent="1">
          <mxGeometry x="630" y="50" width="160" height="60" as="geometry" />
        </mxCell>
      </root>
    </mxGraphModel>
  </diagram>
  <diagram id="IHcO20Y-tc_f7rjlgkf_" name="Trang-14">
    <mxGraphModel dx="1050" dy="530" grid="1" gridSize="10" guides="1" tooltips="1" connect="1" arrows="1" fold="1" page="1" pageScale="1" pageWidth="827" pageHeight="1169" math="0" shadow="0">
      <root>
        <mxCell id="0" />
        <mxCell id="1" parent="0" />
      </root>
    </mxGraphModel>
  </diagram>
</mxfile>
